<?xml version="1.0" encoding="UTF-8"?>
<svg id="Capa_2" data-name="Capa 2" xmlns="http://www.w3.org/2000/svg" viewBox="0 0 71.66 70">
  <defs>
    <style>
      .cls-1 {
        fill: #3423a3;
      }

      .cls-2 {
        fill: #ffbfcb;
      }
    </style>
  </defs>
  <g id="Capa_2-2" data-name="Capa 2">
    <g>
      <rect class="cls-1" width="71.66" height="70" rx="12.87" ry="12.87"/>
      <g>
        <path class="cls-2" d="m21.17,16.36c2.05,0,6.05,0,9.05,2.33,2.17,1.67,3.44,4.55,3.44,7.66,0,4.78-3.17,6.72-4.17,7.28,2.44.39,3.89,1.44,4.83,2.33,2.22,2.11,2.67,5,2.67,6.94,0,2.17-.61,5.22-3.17,7.5-2.78,2.44-6.16,3-9.39,3h-12.44V16.36h9.16Zm-1.94,15.38h2.05c1.11,0,5.61-.11,5.61-4.83,0-3.39-2.61-4.67-5.55-4.67h-2.11v9.5Zm0,15.77h3.11c1.33,0,3.33-.06,4.94-1,1.78-1.06,2.28-2.83,2.28-4.28,0-1.17-.39-3.17-2.72-4.22-1.56-.72-3.39-.72-4.94-.72h-2.67v10.22Z"/>
        <path class="cls-2" d="m63.04,46.69c-.72,1.78-3.44,7.5-11.83,7.5-3.89,0-6.83-1.11-9.22-3.39-2.67-2.5-3.78-5.61-3.78-9.39,0-4.78,1.94-7.72,3.67-9.44,2.83-2.78,6.16-3.39,9.05-3.39,4.89,0,7.72,1.94,9.39,3.94,2.55,3.05,2.89,6.83,2.89,9.44v.56h-17.99c0,1.44.39,3,1.17,4.05.72,1,2.22,2.28,4.83,2.28s4.5-1.22,5.61-3.17l6.22,1Zm-6.22-8.5c-.56-3.28-3.22-4.83-5.72-4.83s-5.11,1.61-5.66,4.83h11.39Z"/>
      </g>
      <rect class="cls-2" x="40.98" y="20.02" width="18.64" height="4.97"/>
    </g>
  </g>
</svg>