<?xml version="1.0" encoding="utf-8"?>
<!-- Generator: Adobe Illustrator 27.7.0, SVG Export Plug-In . SVG Version: 6.00 Build 0)  -->
<svg version="1.1" id="Capa_2_00000124873997719117754080000000352680572937105072_"
	 xmlns="http://www.w3.org/2000/svg" xmlns:xlink="http://www.w3.org/1999/xlink" x="0px" y="0px" viewBox="0 0 1239.3 1210.6"
	 style="enable-background:new 0 0 1239.3 1210.6;" xml:space="preserve">
<style type="text/css">
	.st0{fill:#3423A3;}
	.st1{fill:#FFBFCB;}
	.st2{fill:#FFBFCB;stroke:#FFBFCB;stroke-width:86;stroke-miterlimit:10;}
	.st3{fill:#3423A3;stroke:#FFBFCB;stroke-width:61.208;stroke-miterlimit:10;}
</style>
<g id="_Ñëîé_1">
	<g>
		<path class="st0" d="M222.6,0h794.1c122.8,0,222.6,99.7,222.6,222.6V988c0,122.8-99.7,222.6-222.6,222.6H222.6
			C99.7,1210.6,0,1110.9,0,988V222.6C0,99.7,99.7,0,222.6,0z"/>
		<path class="st1" d="M492.2,1017l-2.1-0.6c-1.2-0.1-2.5-0.3-3.7-0.4c-3.8-0.4-7.8-0.8-11.9-1.6c-29.7-5.4-55.7-18.2-77.5-38.2
			c-29.9-27.4-46.9-62-50.6-102.7c-0.2-1.8-0.3-3.5-0.5-5.3l-0.3-3.1v-11.1l0.4-1.2c0.4-9.4,1.8-19,4.2-28.6
			c8-32.5,24.5-59.7,49-81.1c-1.7-1.5-3.3-3-5-4.6c-28.1-27.2-44.2-60.7-47.9-99.6c-0.2-1.7-0.3-3.4-0.5-5.2l-0.3-3.1V620
			c0,0,0.4-2,0.5-2.2c0.1-1.4,0.2-2.7,0.3-4.1c0.3-3.9,0.6-8,1.3-12.2c2.7-18.5,8.9-36.3,18.3-53c8.8-15.5,19.8-29.1,33.1-40.6
			c-3.8-3.3-7.4-6.8-10.8-10.4c-24.4-26.1-38.5-57.4-42-93.2l-0.8-7.7v-12.3l0.4-1.7c1-21.8,6.2-42.3,15.6-60.8
			c25-49.2,65.6-78.4,120.7-86.5c2.6-0.4,5-0.6,7.3-0.9c1-0.1,1.9-0.2,2.9-0.3l1-0.1H747l2.2,0.6c1.2,0.1,2.5,0.3,3.7,0.4
			c3.8,0.4,7.8,0.8,11.9,1.6c31.5,5.7,58.8,19.7,81.2,41.7c27.6,27,43.4,60.3,46.8,99.1l0.7,8.2v11.9l-0.3,1.6c0,0.3-0.2,1-0.2,1
			c-0.2,2-0.5,4-0.7,6.1c-0.5,5.2-1.1,10.6-2.3,16.3c-7.5,34.5-24.3,63.1-50,85.4c3.6,3.2,7.1,6.5,10.3,10
			c24.8,26.4,39.1,58,42.5,94.1c0.1,1.4,0.3,2.8,0.4,4.2l0.3,3v13.4l-0.5,2.1c-0.2,1.6-0.3,3.2-0.5,4.9c-0.5,4.9-0.9,9.9-1.9,15.2
			c-7.3,37.9-26,69-55.5,92.5c-28.8,22.9-61.3,34.5-96.5,34.5c-8.7,0-17.6-0.7-26.5-2.1c-19.3-3-37.2-9.5-53.7-19.2v2.6
			c0,32.7,0,65.4,0,98.2c0,13-1.7,25.9-4.9,38.3c-9.9,37.6-31,67.8-62.7,89.9c-20.7,14.4-44.3,23.3-70,26.5c-2,0.2-4.1,0.5-6.1,0.7
			l-3.6,0.4L492.2,1017L492.2,1017z M503.4,781.9c-12.8,0-24.2,2.4-34.8,7.5c-17.1,8.1-29.4,20.2-37.6,37.1
			c-8.3,17.3-10.1,34.7-5.5,53.2c5.5,21.8,17.7,38,37.3,49.4c11.9,7,24.8,10.5,38.3,10.5l0,0c3.4,0,6.8-0.2,10.2-0.6
			c21.3-2.6,38.3-12.1,52-28.8c11.8-14.4,17.5-30.9,17.5-50.4c0-21.8,0-44.1,0-65.6c0-4.1,0-8.1,0-12.2c-3.9,0-29.7,0-38.7,0
			c-12.9,0-25.7,0-38.6,0H503.4L503.4,781.9z M553.8,546.8c-17.2,0-34.3,0-51.4,0c-3.4,0-6.1,0.1-8.5,0.4c-19.9,2.3-36,10.2-49,24.2
			c-17.1,18.4-24,39.3-21,63.9c4.9,39.8,37.8,68.8,78.1,69c12,0,23.9,0,35.8,0c10.2,0,20.4,0,30.6,0c4.1,0,8.2,0,12.3,0V546.8
			L553.8,546.8L553.8,546.8z M737.1,546.8c-21,0-40.8,8.2-55.7,23.1s-23,34.6-23,55.6c0,43.5,35.2,78.9,78.6,78.9h0.2
			c42.9-0.1,78.2-35,78.7-77.8c0.2-21.3-7.8-41.3-22.7-56.4C778.3,555.1,758.4,546.8,737.1,546.8L737.1,546.8z M539.5,311.7
			c-12.3,0-24.5,0-36.8,0c-23,0.1-41.8,8-57.5,24.2c-14.7,15.2-21.9,32.8-22,53.9c-0.1,22.7,7.7,41.4,24.1,57.2
			c15.1,14.6,32.6,21.9,53.6,22.1c11.2,0.1,23.3,0.2,37.9,0.2c9.6,0,19.3,0,28.9,0c4.3,0,8.7,0,13,0V311.7c-4.3,0-8.6,0-12.9,0
			C558.4,311.7,549,311.7,539.5,311.7L539.5,311.7z M688.5,469.3c16.5,0,33.1,0,49.6,0c3.7,0,7.2-0.3,10.5-0.8
			c20.3-3.2,36.3-12.2,48.9-27.4c15.2-18.4,21-38.8,17.5-62.5c-2.6-17.7-10.3-32.5-23.5-45c-15.2-14.4-32.4-21.5-52.7-21.7
			c-11.3-0.1-23.4-0.2-38.2-0.2c-9.8,0-19.7,0-29.5,0c-4.2,0-8.5,0-12.8,0v157.6L688.5,469.3L688.5,469.3z"/>
	</g>
</g>
<path class="st0" d="M2409.4,2.2h-794.1c-122.8,0-222.6,99.7-222.6,222.6v765.5c0,122.8,99.7,222.6,222.6,222.6h794.1
	c122.8,0,222.6-99.7,222.6-222.6V224.8C2632,101.9,2532.3,2.2,2409.4,2.2z"/>
<path class="st0" d="M5105.2,5.5h-794.1c-122.8,0-222.6,99.7-222.6,222.6v765.5c0,122.8,99.7,222.6,222.6,222.6h794.1
	c122.8,0,222.6-99.7,222.6-222.6V228C5327.8,105.2,5228.1,5.5,5105.2,5.5z"/>
<path class="st0" d="M3739.7,2.2h-794.1c-122.8,0-222.6,99.7-222.6,222.6v765.5c0,122.8,99.7,222.6,222.6,222.6h794.1
	c122.8,0,222.6-99.7,222.6-222.6V224.8C3962.3,101.9,3862.5,2.2,3739.7,2.2z"/>
<g>
	<path class="st1" d="M1723,221.8c49.9,0,91,41.2,91,91c0,49.9-41.2,91-91,91c-49.9,0-91-41.2-91-91
		C1632,263,1673.1,221.8,1723,221.8z M1799.1,453.1v540h-152.2v-540H1799.1z"/>
	<path class="st1" d="M1871.4,453.1h152.2v69.8c28.7-39.9,79.8-87.3,167.1-87.3c47.4,0,117.2,13.7,159.6,66.1
		c37.4,46.1,42.4,99.8,42.4,152.2v339.2h-152.2V698.8c0-29.9-1.2-77.3-28.7-106c-23.7-24.9-56.1-27.4-71.1-27.4
		c-39.9,0-71.1,13.7-93.5,47.4c-22.5,34.9-23.7,73.6-23.7,104.8v275.6h-152.2V453.1z"/>
</g>
<text transform="matrix(1 0 0 1 2857.5825 925.7963)" class="st1" style="font-family:'FuturaPT-Demi'; font-size:960.4811px; letter-spacing:-55;">Be</text>
<line class="st2" x1="3431.7" y1="391.4" x2="3754" y2="391.4"/>
<circle class="st3" cx="4708.2" cy="610.8" r="247.1"/>
<circle class="st1" cx="5053" cy="276.6" r="77.3"/>
<g>
	<path class="st0" d="M2035.3,2526.8h-45.9c-7.1,0-12.9,5.8-12.9,12.9v44.3c0,7.1,5.8,12.9,12.9,12.9h45.9c7.1,0,12.9-5.8,12.9-12.9
		v-44.3C2048.2,2532.5,2042.4,2526.8,2035.3,2526.8z"/>
	<g>
		<path class="st1" d="M1995.6,2539.5c2.9,0,5.3,2.4,5.3,5.3s-2.4,5.3-5.3,5.3c-2.9,0-5.3-2.4-5.3-5.3S1992.7,2539.5,1995.6,2539.5z
			 M2000,2552.8v31.2h-8.8v-31.2H2000z"/>
		<path class="st1" d="M2004.2,2552.8h8.8v4c1.7-2.3,4.6-5,9.7-5c2.7,0,6.8,0.8,9.2,3.8c2.2,2.7,2.5,5.8,2.5,8.8v19.6h-8.8v-17
			c0-1.7-0.1-4.5-1.7-6.1c-1.4-1.4-3.2-1.6-4.1-1.6c-2.3,0-4.1,0.8-5.4,2.7c-1.3,2-1.4,4.3-1.4,6.1v15.9h-8.8V2552.8z"/>
	</g>
</g>
<g>
	<g>
		<path class="st0" d="M2117,2526.8H2071c-7.1,0-12.9,5.8-12.9,12.9v44.3c0,7.1,5.8,12.9,12.9,12.9h45.9c7.1,0,12.9-5.8,12.9-12.9
			v-44.3C2129.8,2532.5,2124.1,2526.8,2117,2526.8z"/>
	</g>
	<g>
		<path class="st1" d="M2079.3,2543.1c2.1,0,6.1,0,9.1,2.3c2.2,1.7,3.4,4.6,3.4,7.7c0,4.8-3.2,6.7-4.2,7.3c2.4,0.4,3.9,1.4,4.8,2.3
			c2.2,2.1,2.7,5,2.7,6.9c0,2.2-0.6,5.2-3.2,7.5c-2.8,2.4-6.2,3-9.4,3h-12.4v-37H2079.3z M2077.4,2558.5h2.1c1.1,0,5.6-0.1,5.6-4.8
			c0-3.4-2.6-4.7-5.6-4.7h-2.1V2558.5z M2077.4,2574.3h3.1c1.3,0,3.3-0.1,4.9-1c1.8-1.1,2.3-2.8,2.3-4.3c0-1.2-0.4-3.2-2.7-4.2
			c-1.6-0.7-3.4-0.7-4.9-0.7h-2.7V2574.3z"/>
		<path class="st1" d="M2121.2,2573.5c-0.7,1.8-3.4,7.5-11.8,7.5c-3.9,0-6.8-1.1-9.2-3.4c-2.7-2.5-3.8-5.6-3.8-9.4
			c0-4.8,1.9-7.7,3.7-9.4c2.8-2.8,6.2-3.4,9.1-3.4c4.9,0,7.7,1.9,9.4,3.9c2.6,3.1,2.9,6.8,2.9,9.4v0.6h-18c0,1.4,0.4,3,1.2,4.1
			c0.7,1,2.2,2.3,4.8,2.3c2.6,0,4.5-1.2,5.6-3.2L2121.2,2573.5z M2115,2565c-0.6-3.3-3.2-4.8-5.7-4.8s-5.1,1.6-5.7,4.8H2115z"/>
	</g>
	<g>
		<line class="st1" x1="2099.1" y1="2549.3" x2="2117.8" y2="2549.3"/>
		<rect x="2099.1" y="2546.8" class="st1" width="18.6" height="5"/>
	</g>
</g>
<g>
	<g>
		<path class="st0" d="M2198.6,2525.1h-45.9c-7.1,0-12.9,5.8-12.9,12.9v44.3c0,7.1,5.8,12.9,12.9,12.9h45.9
			c7.1,0,12.9-5.8,12.9-12.9V2538C2211.5,2530.9,2205.7,2525.1,2198.6,2525.1z"/>
	</g>
	<g>
		<circle class="st0" cx="2175.6" cy="2560.1" r="14.3"/>
		<path class="st1" d="M2175.6,2576.2c-4.3,0-8.3-1.7-11.4-4.7c-3-3-4.7-7.1-4.7-11.4s1.7-8.3,4.7-11.4c3-3,7.1-4.7,11.4-4.7
			s8.3,1.7,11.4,4.7c3,3,4.7,7.1,4.7,11.4s-1.7,8.3-4.7,11.4C2184,2574.5,2179.9,2576.2,2175.6,2576.2z M2175.6,2547.6
			c-6.9,0-12.5,5.6-12.5,12.5c0,6.9,5.6,12.5,12.5,12.5c6.9,0,12.5-5.6,12.5-12.5C2188.2,2553.2,2182.5,2547.6,2175.6,2547.6z"/>
	</g>
	<g>
		<circle class="st1" cx="2195.6" cy="2540.8" r="4.5"/>
	</g>
</g>
</svg>
