<?xml version="1.0" encoding="utf-8"?>
<!-- Generator: Adobe Illustrator 27.7.0, SVG Export Plug-In . SVG Version: 6.00 Build 0)  -->
<svg version="1.1" id="Capa_2_00000019651895569845560480000002909331071302999936_"
	 xmlns="http://www.w3.org/2000/svg" xmlns:xlink="http://www.w3.org/1999/xlink" x="0px" y="0px" viewBox="0 0 50 50"
	 style="enable-background:new 0 0 50 50;" xml:space="preserve">
<style type="text/css">
	.st0{fill:#FF8FA7;}
</style>
<g id="Capa_1-2">
	<g>
		<circle class="st0" cx="25" cy="25" r="25"/>
		<path d="M12.9,24c0-0.6,0.2-1.1,0.6-1.6l9.6-9.6c0.6-0.6,1.6-0.8,2.4-0.5c0.5,0.2,0.9,0.6,1.1,1l9.6,9.6c0.9,0.9,0.9,2.3,0,3.1
			c-0.9,0.9-2.3,0.9-3.1,0L27,19.9v15.7c0,1.2-1,2.2-2.2,2.2c-1.2,0-2.2-1-2.2-2.2V19.8l-5.8,5.7c-0.9,0.9-2.3,0.8-3.1,0
			C13.2,25.1,12.9,24.5,12.9,24L12.9,24z"/>
	</g>
</g>
</svg>
