<?xml version="1.0" encoding="utf-8"?>
<!-- Generator: Adobe Illustrator 27.7.0, SVG Export Plug-In . SVG Version: 6.00 Build 0)  -->
<svg version="1.1" id="Capa_2_00000019651895569845560480000002909331071302999936_"
	 xmlns="http://www.w3.org/2000/svg" xmlns:xlink="http://www.w3.org/1999/xlink" x="0px" y="0px" viewBox="0 0 50 50"
	 style="enable-background:new 0 0 50 50;" xml:space="preserve">
<style type="text/css">
	.st0{fill:#FF8FA7;}
</style>
<g id="Capa_1-2">
	<g>
		<circle class="st0" cx="25" cy="25" r="25"/>
		<path d="M24,37.1c-0.6,0-1.1-0.2-1.6-0.6l-9.6-9.6c-0.6-0.6-0.8-1.6-0.5-2.4c0.2-0.5,0.6-0.9,1-1.1l9.6-9.6c0.9-0.9,2.3-0.9,3.1,0
			c0.9,0.9,0.9,2.3,0,3.1L19.9,23h15.7c1.2,0,2.2,1,2.2,2.2c0,1.2-1,2.2-2.2,2.2H19.8l5.7,5.8c0.9,0.9,0.8,2.3,0,3.1
			C25.1,36.8,24.5,37.1,24,37.1L24,37.1z"/>
	</g>
</g>
</svg>
