<?xml version="1.0" encoding="utf-8"?>
<!-- Generator: Adobe Illustrator 27.7.0, SVG Export Plug-In . SVG Version: 6.00 Build 0)  -->
<svg version="1.1" id="Capa_2_00000023244037991179423830000005223002697941335474_"
	 xmlns="http://www.w3.org/2000/svg" xmlns:xlink="http://www.w3.org/1999/xlink" x="0px" y="0px" viewBox="0 0 71.7 70"
	 style="enable-background:new 0 0 71.7 70;" xml:space="preserve">
<style type="text/css">
	.st0{fill:#3423A3;}
	.st1{fill:#FFBFCB;}
	.st2{fill:none;stroke:#FFBFCB;stroke-width:4;stroke-miterlimit:10;}
</style>
<g id="Capa_2-2">
	<g>
		<path class="st0" d="M12.9,0h45.9c7.1,0,12.9,5.8,12.9,12.9v44.3c0,7.1-5.8,12.9-12.9,12.9H12.9C5.8,70,0,64.2,0,57.1V12.9
			C0,5.8,5.8,0,12.9,0z"/>
		<g>
			<circle class="st0" cx="35.8" cy="35" r="14.3"/>
			<path class="st1" d="M35.8,51.1c-4.3,0-8.3-1.7-11.4-4.7c-3-3-4.7-7.1-4.7-11.3s1.7-8.3,4.7-11.4S31.6,19,35.8,19
				s8.3,1.7,11.3,4.7s4.7,7.1,4.7,11.3s-1.7,8.3-4.7,11.3C44.2,49.4,40.1,51.1,35.8,51.1z M35.8,22.5c-6.9,0-12.5,5.6-12.5,12.5
				s5.6,12.5,12.5,12.5S48.4,41.9,48.4,35S42.7,22.5,35.8,22.5z"/>
		</g>
		<circle class="st1" cx="51.2" cy="18.9" r="2.5"/>
	</g>
</g>
<path class="st2" d="M47.9,9.8H23.8c-7.6,0-13.7,6.1-13.7,13.7v22.9c0,7.6,6.1,13.7,13.7,13.7h24.1c7.6,0,13.7-6.1,13.7-13.7V23.6
	C61.6,16,55.4,9.8,47.9,9.8z"/>
</svg>
