<svg width="100" height="99" viewBox="0 0 100 99" fill="none" xmlns="http://www.w3.org/2000/svg">
<path d="M39.819 35.1022C34.8085 26.972 28.3751 22.1804 20.983 19.2745C6.29144 13.5246 5.85843 25.89 9.69369 34.6076C1.219 38.5336 -6.38967 48.0858 8.30186 53.8048C15.694 56.6797 23.581 57.4835 32.5815 54.8249C23.5192 57.2053 17.1168 62.0278 12.168 68.365C2.33246 80.9777 13.5908 85.2128 22.8387 84.1927C23.8594 93.714 30.2927 104.132 40.1283 91.5191C45.0771 85.151 48.2319 77.6699 48.5721 68.0559C47.9844 77.6699 50.4588 85.4292 54.7889 92.2611C63.3873 105.801 70.7795 96.0634 72.6971 86.6967C81.7904 88.6442 93.389 85.5529 84.7906 72.0128C80.4604 65.1809 74.522 59.7711 65.738 56.4943C74.4292 60.0493 82.3781 60.0493 89.9867 57.9163C105.142 53.6502 98.4614 43.4179 90.3888 38.6572C94.9973 30.3415 95.7396 18.0071 80.5841 22.2731C72.9446 24.4061 66.1401 28.5485 60.3562 36.1532C66.3256 28.734 68.7691 20.9747 69.1402 12.8136C69.7897 -3.38502 58.284 0.0154571 51.3867 6.44545C45.1389 -0.633725 33.9734 -5.178 33.231 10.9897C32.8599 19.1199 34.561 27.0956 39.7881 35.1022" fill="#3423A3"/>
<path d="M42.479 38.5954C38.8602 32.4436 34.1589 28.7959 28.6844 26.5083C17.8281 21.9949 17.3333 31.1762 20.0241 37.7608C13.6527 40.543 7.8379 47.5294 18.6942 52.0428C24.1687 54.2994 30.0144 55.0104 36.757 53.1866C29.9834 54.825 25.1275 58.2873 21.3541 62.9552C13.8382 72.1983 22.1583 75.5369 29.0556 74.9187C29.6741 82.0288 34.3136 89.8808 41.8294 80.6376C45.6028 75.9697 48.0772 70.4671 48.4793 63.2952C47.8916 70.4671 49.6237 76.2789 52.7476 81.4105C58.9644 91.6428 64.5936 84.5018 66.171 77.5463C72.9136 79.1538 81.6048 77.0208 75.388 66.7884C72.2641 61.6568 67.934 57.5144 61.4388 54.9177C67.8721 57.6999 73.7796 57.8236 79.4707 56.3397C90.8218 53.4029 85.9968 45.6746 80.0583 41.9959C83.6152 35.875 84.3266 26.6938 73.0064 29.6305C67.2844 31.1144 62.1501 34.0821 57.7272 39.6465C62.2739 34.2057 64.2224 28.4558 64.6245 22.3968C65.4287 10.3715 56.7993 12.7209 51.5722 17.3888C47.0256 12.0099 38.7984 8.45484 37.9633 20.4802C37.5612 26.5392 38.7056 32.5055 42.479 38.5336" fill="#D2CCFA"/>
<path d="M49.4692 54.2687C52.0486 54.2687 54.1395 52.1234 54.1395 49.4771C54.1395 46.8308 52.0486 44.6855 49.4692 44.6855C46.8898 44.6855 44.7988 46.8308 44.7988 49.4771C44.7988 52.1234 46.8898 54.2687 49.4692 54.2687Z" fill="white"/>
<path d="M49.4691 54.3614C49.098 54.3614 48.6959 54.2996 48.3247 54.2068C47.0875 53.8977 46.0669 53.0939 45.4173 51.9811C44.7678 50.8682 44.5823 49.5389 44.8606 48.3024C45.1699 47.0349 45.9122 45.9839 46.9948 45.3038C48.0773 44.6237 49.3454 44.4382 50.5826 44.7473C51.8198 45.0565 52.8404 45.8602 53.49 46.9731C54.1395 48.086 54.325 49.4152 54.0467 50.6518C53.7374 51.9192 52.9951 52.9703 51.9126 53.6504C51.1702 54.1141 50.3351 54.3614 49.4691 54.3614ZM49.4691 44.7473C48.634 44.7473 47.8298 44.9637 47.1185 45.4274C46.0669 46.0766 45.3246 47.0967 45.0462 48.3333C44.7678 49.5698 44.9534 50.8373 45.572 51.8883C46.1906 52.9703 47.2113 53.7122 48.3866 54.0213C49.5619 54.3305 50.7991 54.145 51.8507 53.4649C52.9023 52.8157 53.6446 51.7956 53.923 50.559C54.2013 49.3225 54.0158 48.0551 53.3972 47.004C52.7786 45.922 51.7579 45.1801 50.5826 44.871C50.2114 44.7782 49.8403 44.7164 49.4691 44.7164V44.7473Z" fill="white"/>
<path d="M49.4691 54.7013C49.067 54.7013 48.6649 54.6395 48.2628 54.5468C46.9329 54.2067 45.8503 53.3721 45.1389 52.1664C44.4276 50.9608 44.242 49.5697 44.5513 48.2095C44.8606 46.8493 45.6957 45.7055 46.8401 44.9945C48.0154 44.2835 49.3763 44.0671 50.6753 44.4072C53.3971 45.0873 55.0673 47.9313 54.3869 50.7444C53.8301 53.1248 51.7269 54.7323 49.4691 54.7323V54.7013ZM49.4691 45.0873C48.6958 45.0873 47.9535 45.3037 47.2731 45.7055C46.3143 46.3238 45.6338 47.2512 45.3554 48.395C45.0771 49.5388 45.2627 50.7135 45.8503 51.7027C46.438 52.692 47.3659 53.403 48.4484 53.6812C50.7063 54.2686 53.026 52.8156 53.5827 50.4971C54.1394 48.1477 52.7476 45.7983 50.4897 45.2109C50.1495 45.1182 49.8093 45.0873 49.4691 45.0873Z" fill="white"/>
<path d="M49.4691 54.7941C49.067 54.7941 48.634 54.7323 48.2319 54.6395C46.902 54.2995 45.7576 53.4339 45.0462 52.2283C44.3348 51.0227 44.1183 49.6007 44.4585 48.2096C44.7988 46.8185 45.6339 45.6747 46.8092 44.9327C47.9845 44.1908 49.3763 43.9744 50.7063 44.3145C52.0363 44.6545 53.1807 45.5201 53.892 46.7257C54.6034 47.9313 54.8199 49.3533 54.4797 50.7445C53.923 53.1248 51.8507 54.7941 49.4691 54.7941ZM49.4691 44.3454C48.5722 44.3454 47.6752 44.5927 46.902 45.0873C45.7576 45.7983 44.9534 46.9112 44.6441 48.2714C44.3348 49.6007 44.5204 50.9918 45.2318 52.1665C45.9122 53.3412 47.0257 54.1758 48.3247 54.5159C48.7268 54.6086 49.1289 54.6705 49.531 54.6705C51.8198 54.6705 53.8302 53.063 54.3869 50.7445C54.6962 49.4152 54.5106 48.0241 53.7992 46.8494C53.1188 45.6747 52.0053 44.84 50.7372 44.4999C50.3351 44.4072 49.9331 44.3454 49.531 44.3454H49.4691ZM49.4691 53.9594C49.1289 53.9594 48.7887 53.9285 48.4484 53.8358C47.335 53.5576 46.3762 52.8466 45.7885 51.8264C45.2008 50.8063 45.0153 49.6007 45.2936 48.4569C45.572 47.3131 46.2524 46.3238 47.2422 45.7056C48.2319 45.0873 49.4073 44.9018 50.5207 45.18C52.8404 45.7674 54.2323 48.1786 53.6755 50.559C53.1807 52.5683 51.4177 53.9285 49.4691 53.9285V53.9594ZM49.4691 45.211C48.7268 45.211 47.9845 45.4273 47.335 45.8292C46.3762 46.4166 45.7266 47.344 45.4483 48.4569C45.1699 49.5697 45.3555 50.7135 45.9122 51.7028C46.4999 52.692 47.3968 53.3721 48.4794 53.6503C50.7063 54.2068 52.9641 52.8157 53.5209 50.5281C54.0776 48.2405 52.7167 45.922 50.4898 45.3346C50.1496 45.2419 49.8093 45.211 49.5 45.211H49.4691Z" fill="white"/>
<path d="M46.4997 60.513L46.1904 60.4203L48.7576 51.3936L49.0669 51.4863L46.4997 60.513Z" fill="white"/>
<path d="M45.1697 60.0494C44.9841 60.7295 45.3553 61.4714 46.0357 61.6569C46.7162 61.8424 47.3966 61.4714 47.6131 60.7604C47.7987 60.0803 47.4275 59.3384 46.7471 59.1529C46.0666 58.9674 45.3862 59.3384 45.1697 60.0494Z" fill="white"/>
<path d="M46.3761 61.7804C46.3761 61.7804 46.1286 61.7804 46.0049 61.7186C45.6647 61.6259 45.3863 61.3786 45.2008 61.0694C45.0152 60.7603 44.9842 60.3584 45.077 60.0184C45.2935 59.2765 46.0358 58.8746 46.7472 59.091C47.0875 59.1837 47.3658 59.431 47.5514 59.7402C47.737 60.0493 47.7679 60.4512 47.6751 60.7912C47.5823 61.1313 47.3349 61.4404 47.0256 61.6259C46.84 61.7495 46.5926 61.8114 46.3761 61.8114V61.7804ZM46.3761 59.1837C45.8503 59.1837 45.3863 59.5238 45.2317 60.0493C45.1389 60.3584 45.1698 60.6985 45.3245 60.9767C45.4791 61.2549 45.7266 61.4713 46.0359 61.5641C46.3451 61.6568 46.6544 61.6259 46.9328 61.4713C47.2112 61.3167 47.3967 61.0694 47.4895 60.7603C47.5823 60.4512 47.5514 60.1111 47.3967 59.8329C47.2421 59.5547 46.9947 59.3383 46.6854 59.2455C46.5617 59.2146 46.4689 59.1837 46.3451 59.1837H46.3761Z" fill="white"/>
<path d="M39.788 55.1032L39.6643 54.825L47.6441 50.3116L47.7988 50.5899L39.788 55.1032Z" fill="white"/>
<path d="M39.1694 53.8049C38.5509 54.1449 38.3343 54.9487 38.6746 55.5669C39.0148 56.1852 39.788 56.4325 40.3757 56.0925C40.9943 55.7524 41.2108 54.9487 40.8706 54.3304C40.5303 53.7121 39.7571 53.4648 39.1694 53.8049Z" fill="white"/>
<path d="M39.7881 56.3088C39.3242 56.3088 38.8602 56.0615 38.6128 55.5978C38.2726 54.9177 38.4891 54.0831 39.1386 53.7121C39.7881 53.3411 40.5923 53.5884 40.9634 54.2685C41.149 54.5777 41.1799 54.9796 41.0871 55.3196C40.9944 55.6596 40.7469 55.9688 40.4376 56.1543C40.2211 56.2779 40.0046 56.3088 39.7881 56.3088ZM39.7881 53.7121C39.6025 53.7121 39.417 53.7739 39.2314 53.8667C38.6746 54.1758 38.4581 54.9177 38.7674 55.5051C39.0767 56.0924 39.7881 56.3088 40.3758 55.9997C40.6541 55.8451 40.8397 55.5978 40.9325 55.2887C41.0253 54.9796 40.9944 54.6395 40.8397 54.3613C40.6232 53.9594 40.2211 53.743 39.7881 53.743V53.7121Z" fill="white"/>
<path d="M47.5204 49.075L38.7673 46.4164L38.8601 46.1073L47.6132 48.7349L47.5204 49.075Z" fill="white"/>
<path d="M39.2314 45.0254C38.551 44.809 37.8705 45.2109 37.654 45.9219C37.4375 46.6329 37.8396 47.3439 38.52 47.5294C39.2005 47.7458 39.8809 47.3439 40.0974 46.6329C40.314 45.9219 39.9119 45.2109 39.2314 45.0254Z" fill="white"/>
<path d="M38.8602 47.653C38.8602 47.653 38.6127 47.653 38.489 47.5912C37.7776 47.3748 37.3756 46.6019 37.5921 45.8909C37.6848 45.5509 37.9323 45.2417 38.2416 45.0563C38.5509 44.8708 38.922 44.8399 39.2623 44.9326C39.9736 45.149 40.3757 45.9218 40.1592 46.6328C40.0664 46.9729 39.819 47.282 39.5097 47.4675C39.3241 47.5912 39.0767 47.653 38.8602 47.653ZM38.8602 45.0563C38.3344 45.0563 37.8704 45.3963 37.7158 45.9218C37.5302 46.571 37.9014 47.2511 38.5199 47.4366C39.1385 47.6221 39.7881 47.2511 39.9736 46.6019C40.1592 45.9527 39.7881 45.2726 39.1695 45.0872C39.1695 45.0872 38.953 45.0253 38.8292 45.0253L38.8602 45.0563Z" fill="white"/>
<path d="M48.3864 47.7767L43.9944 39.5229L44.2728 39.3683L48.6647 47.6222L48.3864 47.7767Z" fill="white"/>
<path d="M45.2625 38.8737C44.9222 38.2555 44.149 38.0081 43.5613 38.3482C42.9737 38.6882 42.7262 39.492 43.0665 40.1103C43.4067 40.7285 44.1799 40.9758 44.7676 40.6358C45.3552 40.2957 45.6027 39.492 45.2625 38.8737Z" fill="white"/>
<path d="M44.18 40.8831C44.18 40.8831 43.9325 40.8831 43.8088 40.8213C43.4686 40.7285 43.1902 40.4812 43.0046 40.1721C42.6644 39.492 42.8809 38.6573 43.5304 38.2864C43.8397 38.1009 44.2109 38.07 44.5511 38.1627C44.8913 38.2554 45.1697 38.5027 45.3553 38.8119C45.5409 39.121 45.5718 39.5229 45.479 39.8629C45.3862 40.203 45.1388 40.5121 44.8295 40.6976C44.6439 40.8213 44.3965 40.8831 44.18 40.8831ZM44.18 38.2864C43.9944 38.2864 43.7779 38.3482 43.6232 38.4409C43.0665 38.7501 42.85 39.492 43.1593 40.0793C43.3139 40.3576 43.5614 40.5739 43.8707 40.6667C44.18 40.7594 44.4892 40.7285 44.7676 40.5739C45.046 40.4194 45.2316 40.1721 45.3243 39.8629C45.4171 39.5538 45.3862 39.2138 45.2316 38.9355C45.0769 38.6573 44.8295 38.4409 44.5202 38.3482C44.3965 38.3173 44.3037 38.2864 44.18 38.2864Z" fill="white"/>
<path d="M50.1804 47.5603L49.8711 47.4675L52.4382 38.4408L52.7475 38.5335L50.1804 47.5603Z" fill="white"/>
<path d="M53.7681 38.9046C53.9537 38.2245 53.5826 37.4825 52.9021 37.2971C52.2217 37.1116 51.5412 37.4825 51.3247 38.1935C51.1391 38.8736 51.5103 39.6156 52.1907 39.801C52.8712 39.9865 53.5516 39.6156 53.7681 38.9046Z" fill="white"/>
<path d="M52.5619 39.9247C52.5619 39.9247 52.3144 39.9247 52.1907 39.8629C51.8505 39.7702 51.5721 39.5229 51.3865 39.2137C51.201 38.9046 51.17 38.5027 51.2628 38.1627C51.4793 37.4208 52.2216 37.0189 52.933 37.2353C53.2732 37.328 53.5516 37.5753 53.7372 37.8845C53.9228 38.1936 53.9537 38.5955 53.8609 38.9355C53.6753 39.5229 53.1495 39.9247 52.5619 39.9247ZM52.5619 37.328C52.0361 37.328 51.5721 37.6681 51.4175 38.1936C51.3247 38.5027 51.3556 38.8428 51.5103 39.121C51.6649 39.3992 51.9123 39.6156 52.2216 39.7083C52.8402 39.8938 53.4898 39.5229 53.6753 38.8737C53.7681 38.5645 53.7372 38.2245 53.5825 37.9463C53.4279 37.6681 53.1805 37.4517 52.8712 37.3589C52.7474 37.328 52.6547 37.2971 52.5309 37.2971L52.5619 37.328Z" fill="white"/>
<path d="M51.2938 48.6424L51.1392 48.3642L59.1499 43.8508L59.2736 44.1291L51.2938 48.6424Z" fill="white"/>
<path d="M59.7685 45.1491C60.3871 44.809 60.6036 44.0053 60.2634 43.387C59.9232 42.7688 59.1499 42.5215 58.5623 42.8615C57.9437 43.2015 57.7272 44.0053 58.0674 44.6236C58.4076 45.2418 59.1809 45.4891 59.7685 45.1491Z" fill="white"/>
<path d="M59.15 45.3964C58.6861 45.3964 58.2221 45.1491 57.9747 44.6854C57.7891 44.3762 57.7582 43.9744 57.851 43.6343C57.9437 43.2943 58.1912 42.9851 58.5005 42.7997C58.8098 42.6142 59.1809 42.5833 59.5212 42.676C59.8614 42.7687 60.1397 43.0161 60.3253 43.3252C60.5109 43.6343 60.5418 44.0362 60.449 44.3762C60.3563 44.7163 60.1088 45.0254 59.7995 45.2109C59.583 45.3346 59.3665 45.3655 59.15 45.3655V45.3964ZM59.15 42.7997C58.9644 42.7997 58.7479 42.8615 58.5933 42.9542C58.3149 43.1088 58.1293 43.3561 58.0365 43.6652C57.9438 43.9744 57.9747 44.3144 58.1293 44.5926C58.4386 45.18 59.15 45.3964 59.7377 45.0873C60.016 44.9327 60.2016 44.6854 60.2944 44.3762C60.3872 44.0671 60.3563 43.7271 60.2016 43.4488C60.047 43.1706 59.7995 42.9542 59.4902 42.8615C59.3665 42.8306 59.2737 42.7997 59.15 42.7997Z" fill="white"/>
<path d="M60.0778 52.8465L51.3247 50.2188L51.4175 49.8788L60.1705 52.5373L60.0778 52.8465Z" fill="white"/>
<path d="M59.7066 53.9285C60.387 54.1449 61.0675 53.7431 61.284 53.032C61.5005 52.321 61.0984 51.61 60.4179 51.4245C59.7375 51.2082 59.057 51.61 58.8405 52.321C58.624 53.032 59.0261 53.7431 59.7066 53.9285Z" fill="white"/>
<path d="M60.0777 54.0521C60.0777 54.0521 59.8303 54.0521 59.7065 53.9903C58.9952 53.7739 58.5931 53.0011 58.8096 52.2901C58.9024 51.95 59.1498 51.6409 59.4591 51.4554C59.7684 51.2699 60.1396 51.239 60.4798 51.3318C60.82 51.4245 61.0984 51.6718 61.2839 51.9809C61.4695 52.2901 61.5005 52.692 61.4077 53.032C61.3149 53.3721 61.0674 53.6812 60.7581 53.8667C60.5726 53.9903 60.3251 54.0521 60.1086 54.0521H60.0777ZM59.7375 53.8358C60.3561 54.0212 61.0056 53.6503 61.1912 53.0011C61.3767 52.3519 61.0056 51.6718 60.387 51.4863C60.0777 51.3936 59.7684 51.4245 59.49 51.5791C59.2117 51.7336 59.0261 51.9809 58.9333 52.2901C58.7477 52.9393 59.1189 53.6194 59.7375 53.8048V53.8358Z" fill="white"/>
<path d="M54.6652 59.5857L50.2732 51.3318L50.5516 51.1772L54.9436 59.4311L54.6652 59.5857Z" fill="white"/>
<path d="M53.6754 60.0804C54.0156 60.6986 54.7888 60.9459 55.3765 60.6059C55.9641 60.2658 56.2116 59.4621 55.8713 58.8438C55.5311 58.2255 54.7579 57.9782 54.1702 58.3183C53.5826 58.6583 53.3351 59.4621 53.6754 60.0804Z" fill="white"/>
<path d="M54.7889 60.8532C54.7889 60.8532 54.5415 60.8532 54.4178 60.7913C54.0775 60.6986 53.7992 60.4513 53.6136 60.1422C53.428 59.833 53.3971 59.4312 53.4899 59.0911C53.5827 58.7511 53.8301 58.4419 54.1394 58.2565C54.4487 58.071 54.8198 58.0401 55.1601 58.1328C55.5003 58.2255 55.7787 58.4728 55.9642 58.782C56.3045 59.4621 56.088 60.2967 55.4384 60.6677C55.2529 60.7914 55.0054 60.8532 54.7889 60.8532ZM54.7889 58.2565C54.6033 58.2565 54.3868 58.3183 54.2322 58.411C53.9538 58.5656 53.7682 58.8129 53.6755 59.122C53.5827 59.4312 53.6136 59.7712 53.7682 60.0494C53.9229 60.3276 54.1703 60.544 54.4796 60.6368C54.7889 60.7295 55.0982 60.6986 55.3766 60.544C55.9333 60.2349 56.1498 59.493 55.8405 58.9056C55.6859 58.6274 55.4384 58.411 55.1291 58.3183C55.0054 58.2874 54.9126 58.2565 54.7889 58.2565Z" fill="white"/>
</svg>
