<?xml version="1.0" encoding="UTF-8"?>
<svg id="Capa_2" data-name="Capa 2" xmlns="http://www.w3.org/2000/svg" viewBox="0 0 386.14 360.14">
  <defs>
    <style>
      .cls-1 {
        fill: #fff;
      }
    </style>
  </defs>
  <g id="Capa_1-2" data-name="Capa 1">
    <g>
      <path class="cls-1" d="m300.38,105.45c1.29,6.76-4.7,11.85-11.28,11.77-5.76.01-10.54-5.13-10.91-10.73-.46-7.02,4.54-10.56,10.4-12.62,7.15-2.52,10.73,6,11.79,11.58Z"/>
      <path class="cls-1" d="m58.26,326.18c-7.34-3.57-9.83-11.97-9.47-19.62.23-5.1,1.64-9.62,3.61-13.96l2.02.9c-5.11,11.31-4.71,25.98,8.58,31.32,1.57.63,3.12.95,4.77,1.23,2.2.37,2.76,1.2.33,1.75-3.09.7-7.05-.27-9.84-1.62Z"/>
      <path class="cls-1" d="m347.22,108.34c.06,1.88-2.65,3.72-3.55,1.55-.85-2.05,3.31-4.58,3.55-1.55Z"/>
      <path class="cls-1" d="m350.15,130.92c-5.34-.05-5.8-8.49-.2-8.79,6.1-.33,6.44,8.86.2,8.79Zm-.84-4.18c-.65-.85-1.55-2.27-1.65,0-.07,1.7,1.82,2.6,3.27,2.6,1.3-.23,2.91-1.07,1.13-1.46-.4-.09-.99.57-1.63.36-.8-.28-.7-.96-1.12-1.5Z"/>
      <path class="cls-1" d="m376.44,186.47c-4.49-2.38-4.09-10.32-4.53-14.56-.63-6-1.63-11.97-2.97-17.85-.63-2.78-1.3-5.54-2.37-8.18-.36-.89-3.98-7.08-3.49-7.55,1.2-1.15,7.37,5.02,8.08,5.83,2.63,2.99,4.53,6.52,6.42,10,3.88,7.15,5.77,14.74,6.19,22.85.29,3.71-1.85,12.36-7.33,9.46Zm-2.62-20.69c.22,3.8-1.2,15.74,4.28,16.63,2.05.34,4.39-1.86,4.41-3.96.01-.72,0-2.08-1.27-1.33-.62.37-.29,2.14-.63,2.73-1.48,2.55-3.8,1.11-4.7-1.03-1.15-2.74-.82-5.86-.82-8.76.11-2.23.51-7.57-.8-9.44-1.89-2.72-.53,3.95-.47,5.16Z"/>
      <path class="cls-1" d="m62.77,73.22c.46,4.35-5.71,5.91-5.71,1.2,0-3.54,5.26-5.33,5.71-1.2Z"/>
      <path class="cls-1" d="m9.51,146.32c5.39-.81,8.54,4.18,8.68,9.19.02,10.57-15.27,10.23-15.82.07-.24-4.39,2.71-8.59,7.14-9.26Zm1.36,3.06c.07-1.05-2.07-.46-2.5-.31-2.33.83-4.12,3.58-4.12,6.02.66,1.83,1.58,3.06,1.68.36.09-2.11.07-4.09,2.34-5.11.56-.25,2.55-.11,2.6-.96Z"/>
      <path class="cls-1" d="m29.35,139.13c-2.21-4.32-2.26-8.9-2.26-13.62-.96-10.56,4.97-21.53,10.74-29.96,1.43-2.08,2.88-4.18,4.5-6.11,2.52-3.03,1.17.06.38,1.72-2.19,4.6-3.91,9.42-5.2,14.35-1.35,5.14-2.34,10.36-2.2,15.7.13,5.43,1.92,10.92,1.31,16.35-.56,5.03-4.8,6.39-7.27,1.57Zm-.97-6.07c.32,2.25,1.99,5.46,4.47,5.8,2.77-.14,2.94-4.17,1.36-3.37-.89.45-.54,1.92-1.86,1.98-.98.04-2.04-2.04-2.37-2.72-.2-.43-.76-3.38-.99-3.48-1.41-.58-.72,1.05-.61,1.79Z"/>
      <path class="cls-1" d="m17.01,274.37c.52.02,1.74,1.14,1.82,0-1.01-2.23-5.6-1.23-4.49.33.41.58,1.99-.34,2.67-.32Zm-4.45,1.57c-.02-4.77,7.23-5.7,7.82-.84.64,5.2-7.79,6.41-7.82.84Z"/>
      <path class="cls-1" d="m14.94,189.6c.11,2.67,1.38,5.68,3.75,7.13.71.44,1.86,1.31,1.56-.06-.16-.69-2-1.63-2.48-2.21-2.04-2.43-1.51-4.38-.53-6.99.32-.82,1.13-1.84-.5-1.51-1.37.27-1.61,2.55-1.8,3.64Zm-3.07-.35c1.08-3.33,4.62-5.79,8.05-5.68,1.4.04,4.05,1.49,5.28,1.08,2.07-.69-.15-3.46-.35-4.78-.54-3.66,1.65-9.45,6.2-8.81,3.78.54,6.25,5.72,7.43,8.86,1.73,4.64,2.31,9.58,1.99,14.51-.12,1.75.08,5.56-1.48,6.73-1.7,1.28-5.86,1.06-7.86,1.08-4.35-.04-8.7-.94-12.49-3.14-3.22-1.88-8.18-5.51-6.77-9.85Z"/>
      <path class="cls-1" d="m29.91,227.45c-1.35-4.1.12-8.65,4.24-10.45,9.88-4.33,12.47,9.23,12.55,15.87.07,1.62-.14,4.64-1.47,5.81-1.2,1.06-5.72,1.52-7.44,2.11-4.79,1.63-9.72,3.08-14.85,2.56-4.03-.41-8.5-2.4-8.58-7.07-.1-5.31,5.05-5.91,9.27-5.65,1.17.06,6.09,1.86,6.96,1.42,1.9-.95-.24-3.24-.68-4.6Zm2.47-4.41c-.29.78-.3,3.87,1.22,2.98.51-.3-.08-2.08.18-2.74.55-1.37,2.05-1.95,3.44-1.62,1.47.34,2.36,1.59,3.09,2.81.29.47,1.35,3.63,2.04,2.03.35-.82-1.58-3.35-2.07-3.93-.95-1.14-2.24-2.23-3.82-2.14-1.73,0-3.46.96-4.08,2.61Z"/>
      <path class="cls-1" d="m267.46,177.07c-.75-4.22-.11-9.15-.11-13.44-.33-4.96-.59-9.91-.97-14.86-.08-1.07-1.02-3.78.57-3.23,1.94.67,1.76,3.55,1.79,5.05.11,4.94,0,9.87-.05,14.81-.02,2.85,1.4,9.68-1.23,11.67Z"/>
      <path class="cls-1" d="m265.74,204.3c.87-6.14,1.81-12.35,1.83-18.56,0-.95-.66-5.95-.05-6.42,1.65-1.25,1.05,5.37,1.03,6.21-.33,12.28-.68,24.55-2.54,36.7-.92,5.99-1.95,11.87-3.56,17.71-.41,1.51-.85,3.02-1.3,4.52-.31,1.01-1.39,3.1-1.28,4.07.26,2.37,1.23-.75,1.57-1.8,8.46-26.04,9.04-54.99,8.61-82.17.13-3.93-.06-7.86.03-11.79.01-.58-.32-4.51.2-5.02,1.33-1.31,2.06,1.53,2.22,2.17.92,3.74.65,7.75.68,11.57.03,4.33.06,8.67.05,13-.04,16.76-.27,34.02-2.78,50.62-.14.94-1.76,9.13-1.18,9.19,1.44.16,2.02-7.7,2.19-8.88,1.13-8.14,1.41-16.37,1.87-24.57.48-8.54,1.04-17.08,1.24-25.64.09-4.03.11-8.07-.03-12.1-.15-4.21-1.12-8.68-.91-12.87.11-2.14.34-1.78,2.36-1.96,1.11-.1,3.79-1.11,4.69-.61,2.13,1.19,1.86,8.41,1.93,10.52.28,8.5-.07,17.03-.59,25.5-.24,4.05-.6,8.09-.88,12.14-.05.71-.66,3.32-.16,3.73,1.39,1.15,1.2-2.45,1.24-2.9.71-8.23,1.22-16.5,1.65-24.75.2-3.96.25-7.92.04-11.88-.11-2.15-.29-4.29-.54-6.43-.19-1.64-1.19-4.22-.79-5.82.31-1.21,1.07-1.37,2.05-2.03.54-.36,3.18-3.24,3.65-3.28,1.91-.16,2.06,7.29,2.21,8.89,1.53,16.72,1.55,34.35-.19,51.05-.23,2.22-.51,4.43-.82,6.64-.15,1.08-1.34,5.33-.73,6.04,1.24,1.46,1.42-3.24,1.48-3.75.32-2.35.59-4.7.79-7.07.78-9.09,1.46-18.12,1.59-27.24.14-8.99-.55-17.99-1.35-26.94-.33-3.8-1.52-8.05-.73-11.73.46-2.17.59-4.32.37-6.53-.21-2.17-1.76-5.42-1.31-7.5,1.39.89,2.26,2.98,3.53,4.12,1.31,1.17,2.8,2.12,4.4,2.83,3.86,1.71,6.92,2.06,9.58,5.74,5.27,7.3,10.17,15.05,15.23,22.52,10.36,15.28,17.42,33.55,15.77,52.29-.19,2.13-.49,4.24-.92,6.34-.37,1.86-1.99,4.95-1.86,6.74.11,1.46.55.73,1.17-.13,1.23-1.68,1.51-5.21,1.91-7.29,1.8-9.23,1.03-19.64-1.38-28.68-2.49-9.38-6.47-18.19-11.69-26.37-5.03-7.9-11.16-15.16-15.71-23.36-.41-.73-2.9-4.3-2.62-4.81.35-.62,4.51-.32,5.4-.36,2.41-.11,3.6-.03,5.27,1.76s3.22,3.74,4.79,5.62c6.05,7.28,11.29,15.16,16.19,23.26,9.99,16.51,14.21,34.22,13.21,53.5-.26,4.93-.84,9.89-1.96,14.71-.48,2.07-1.09,4.11-1.81,6.11-.92,2.6-3.05,5.56-3.53,8.21-.14.79-.87,2.07.51.85,1.08-.97,1.85-3.52,2.46-4.88,1.95-4.4,3.24-9.07,4.08-13.8,3.36-18.79,1.44-38.77-7.07-55.99-4.15-8.41-9.33-16.34-14.67-24.04-2.64-3.79-5.58-7.33-8.55-10.86-.62-.74-3.72-3.42-3.67-4.51.04-1,3.05-2.13,4.13-2.23,2.85-.26,5.7,5.55,7.39,7.69,3.14,3.99,6.37,7.9,9.52,11.88,5.68,7.19,10.86,14.69,15.28,22.73,17.2,31.36,15.82,76.13-12.45,100.66-3.36,2.92-7.1,5.36-10.47,8.23-.72.62-2.36,2-.29,2.33,1.59.25,4.22-2.57,5.38-3.45,6.89-5.23,13.39-11.08,18.41-18.17,1.14-1.63,2.14-3.3,3.11-5.03.73-1.31.97-2.85,2.08-2.13,1.03.66,1.02,5.53,1.07,6.66.1,2.57-.09,5.16-.39,7.7-1.05,8.83-4.15,17.24-8.45,24.98-4.18,7.53-9.38,14.48-15.95,20.09-6.99,5.96-14.98,9.58-23.42,13-4.21,1.7-8.43,3-12.82,4.14-4.65,1.21-10.03,3.04-14.89,2.78-3.77-.19-4.2-3.35-2.98-6.41.8-2.01,2.17-3.71,3.64-5.26.57-.61,2.72-2.7.49-1.94-2.45.83-5.29,6.41-5.69,8.68-.17.91-.24,1.73-.04,2.65.04,0,.8,1.82.77,1.87-.7,1.72-3.05-.61-3.59-1.33-4.97-6.65,4.38-16.1,9.11-20.02,1.14-.94,4.12-2.26,4.77-3.52,1.13-2.17-1.72-.06-2.39.43-3.14,2.29-6.09,4.77-8.54,7.81-2.35,2.92-5.08,6.89-5.31,10.76-.07,1.17.1,2.32.48,3.43.1.28.8,1.38.75,1.63-.32,1.43-3.05-.3-3.8-.82-6.38-4.44-1.02-14.64,2.75-19.03,5.65-6.58,13.59-9.66,21.24-13.2,2.01-.94,4.01-1.92,6-2.93,1.9-.96,4.65-1.83,6.26-3.23,1.65-1.44.56-1.26-.83-.72-2.44.96-4.8,2.49-7.16,3.64-7.92,3.86-16.84,6.72-23.41,12.82-2.86,2.66-5.47,6-7.07,9.58-.7,1.56-1.21,3.21-1.44,4.91-.27,1.98.35,3.99.11,5.89-5.07-3.05-2.9-12.94-.43-16.91.58-.94,2.5-4.8-.42-3.01-2.11,1.29-3.54,6.4-4.02,8.66-.62,2.9-.55,6.15.65,8.9,1.25,2.85,3.63,4.36,3.69,7.71.11,5.42-3.13,10.88-7.08,14.36-3.39,2.98-10.87,8.09-15.5,5.3-2.4-1.44-3.45-5.47-3.98-8.02-.33-1.55-.47-3.12-.42-4.71.04-1.25.87-3.59.55-4.78-.77-2.84-1.78,3.51-1.81,4.56-.08,3.31.87,6.91,2.22,9.92.87,1.96,4.16,4.67.52,4.71-2.9.03-5.17-1.86-6.5-4.25-3.18-5.73-3.99-12.46-2.53-18.82.78-3.37,2.07-6.64,3.86-9.6.76-1.26,2.26-2.63,2.78-3.98.22-.57.99-1.39-.2-1.08-1.66.43-3.87,5.19-4.61,6.61-1.49,2.88-2.56,5.99-3.15,9.18-1.2,6.46-.21,12.98,3.24,18.61,1.7,2.79-.36,2.35-2.61,1.32-3.04-1.38-3.95-3.89-4.6-7.01-1.52-7.3-.21-14.57,2.9-21.28,5.92-12.78,18.29-20.17,25.52-31.91,1.06-1.73,1.65-3.94-.2-1.49-2.04,2.71-3.73,5.53-6.02,8.06-4.34,4.8-9.28,8.97-13.32,14.04-3.88,4.86-7.05,10.3-9.02,16.21-1.07,3.24-1.65,6.53-1.61,9.95,0,.96,1.21,9.06.81,9.15-1.52.35-3.08-6.35-3.25-7.35-.54-3.19-.54-6.54-.17-9.75.73-6.38,3.25-12.52,7.11-17.64,3.79-5.03,9.19-8.6,13.51-13.16,4.35-4.58,8.09-9.75,10.86-15.44,3.13-6.43,5.63-13.27,7.07-20.28.52-2.53,2.01-7.21,1.1-9.73-.32-.88-.71-1.76-1.85-1.22-1.13.54-.65,4.28-.71,5.27-.72,12.88-6.84,26.87-15.11,36.69-4.03,4.79-8.87,8.61-13.3,12.98-4.83,4.75-7.91,10.67-9.83,17.14-1.95,6.55-2.02,13.49.56,19.89.71,1.75,3.57,4.6,2.42,5.89-1.72,1.93-8.98,1.16-10.96-.02-2.46-1.45-3.15-5.48-3.65-8.05-.65-3.41-.58-6.92.22-10.3.16-.71,1.38-3.05,1.2-3.76-.35-1.4-1.12.32-1.43.96-1.58,3.27-1.7,7.47-1.36,11,.16,1.62.43,3.2.91,4.76.16.53,1.65,3.19,1.41,3.71-.7,1.51-4.89-3.19-5.38-4.07-2.98-5.35-3.32-12.98-2.3-18.85,1.2-6.95,4.76-12.93,8.67-18.68,1.79-2.62,3.73-5.14,5.78-7.57.63-.74,6.27-6.39,5.55-6.92-1.39-1.02-10.71,11.84-11.77,13.37-3.89,5.63-7.67,11.78-9.11,18.55-.67,3.15-.86,6.37-.57,9.57.07.84,1.72,8.61,1.68,8.62-2.14.96-4.6-12.11-4.69-13.44-.33-5.06.33-10.16,2-14.95,3.49-10.09,11.02-18.07,18.78-25.1,8.16-7.39,17.42-13.52,23.65-22.77,6.43-9.54,9.5-20.64,13.07-31.45,3.86-11.7,6.17-23.21,7.91-35.4Z"/>
      <path class="cls-1" d="m297.13,128.55c-.92-.52-9-7.69-7.15-8.66-.36.19,4.19,4.42,4.96,4.84.3.16,2.23,1.48,1.91.16-.19-.79-2.26-1.53-2.86-2.03-1.48-1.24-3.35-4.87.26-4.5,1.25.12,2.35,2.12,3.35,2.94,1.35,1.11,2.92,1.92,4.54,2.56,1.69.67,4.74,1.15,1.84-.44-2.28-1.24-6.4-1.97-7.27-4.96-1.15-3.9,4.06-.01,5.02.54,1.34.77,7.81,3.86,8.82,1.65.84-1.85-5.77-2.68-7.08-3.24-.76-.33-3.24-1.3-3.3-2.39-.1-1.91,2.61-.37,3.53-.14,1.01.26,6.66,1.19,3.55-.5-.54-.29-8-1.83-4.15-3.12.82-.28,8.73,1.63,8.68.04-.05-1.53-7.29.63-8.42-1.46-1.05-1.93,5.93-2.31,7.14-2.44,3.39-.37,7.02-.31,10.16,1.12,5.45,2.49,8.51,8.92,6.95,14.7-2.02,7.5-12.6,8.51-19.09,8.47-3.93-.54-7.89-1.13-11.39-3.14Z"/>
      <path class="cls-1" d="m311.36,94.23c-2.29,1.63-4.89,2.65-7.69,2.93-.96.09-6.27.13-4.56-2.06.86-1.09,5.79-.95,5.79-2.7-.01-1.13-2.06.3-2.6.49-1.26.47-2.86.93-4.2.83.45-1.29,2.35-2.36,3.29-3.45,1.27-1.47,2.34-3.1,3.55-4.62,2.36-2.96,4.82-4.55,8.71-4.37,4.57-.12,9.53,1.81,12.1,5.78,2.46,3.81,2.14,10.24.21,14.2-.79,1.61-2.64,4.53-4.58,4.79-1.05.14-2.45-.59-3.5-.79-1.63-.3-3.27-.4-4.93-.36-2.85.07-5.52.98-8.31,1.2-2.37.19-2.09-.75.1-1.16.92-.17,5.49-.75,3.48-1.71-.3-.14-6.77.9-5.74-.56.51-.72,5.78.2,5.49-1.37-.15-.8-4.6.06-5.5-.26-3.23-1.15.31-1.69,1.8-1.85,2.75-.28,5.13-.8,7.44-2.39,1.04-.72,4.96-3.61,3.89-5.19-.9-1.33-3.32,1.97-4.24,2.62Z"/>
      <path class="cls-1" d="m288.52,86.32s-.35-3.81-1.27-1.87c-.65,1.38.81,4.47.29,6.18-1.48,4.8-1.79-4.54-2.79-1.65-.46,1.35,1.25,3.94-.76,4.54-1.27.38-2.76-2.66-3.35-3.5-2.35-3.37-4.63-6.85-6.05-10.73-1.64-4.48-1.69-9.24-2.08-13.94.39-6.3,2.31-14.01,9.24-15.96,5.67-1.6,12.57,1.13,16.59,5.17,4.76,4.8,7.66,12.96,7.76,19.63.05,3.63-1,7.09-2.84,10.21-1.24,2.08-5.07,7.82-7.74,7.94-3.24.15.71-4.32,1.25-5.91.08-.24,1.22-3.14-.16-2.4-.68.37-1.39,3.46-1.88,4.2-2.9,4.32-1.05-2.43-.97-4.17.17-4.15-.77-8.62-2.37-12.44-.38-.91-.94-2.63-2.12-1.36-.63.68,1,4.03,1.22,4.91.98,3.86,1.55,8.65.61,12.57-.15.61-.71,3.41-1.73,3.22-.59-.11-.77-4-.85-4.64Z"/>
      <path class="cls-1" d="m269.23,103.71c-9.49,0-21.26-7.91-21.96-18.03-.33-4.77,1.24-9.62,6.31-10.72,5.77-1.25,11.12.96,15.52,4.59,3.86,3.19,9.01,8.27,10.82,13.04,1.03,2.7-2.18.88-3.83.22-.51-.2-2.38-1.46-2.92-.95-.71.68,1.65,1.51,1.86,1.61,1.31.62,5.19,1.37,4.33,3.2-.96,2.07-5.1-.03-6.52-.67-2.35-1.05-4.22-2.54-6.13-4.22-.54-.46-2.38-2.26-2.55-.2-.08,1,2,2.49,2.62,3.05,2.28,2.01,5,3.58,7.96,4.3,3.7.91.64,1.9-1.7,2.04-.62.04-3.25-.45-3.37.44-.13.98,2.49.75,3.06.81,4.62.48-1.85,1.53-3.5,1.49Z"/>
      <path class="cls-1" d="m271.17,113.38c-.02,2.35,2.01-1.65,2.56-2.22.32-.33,1.67-1.7,2.25-1.57,1.23.28-.05.9-.23,1.23-.28.52-4.72,5.28-3.25,5.97.5.23,2.6-3.66,3.28-4.19.6-.47.87-.96,1.58-.79.42.11,1.47,1.58,1.47,2.06,0,1.54-2.77,3.82-3.48,5.37-1.01,2.23-1.43,4.71-1.44,7.15-.01,1.01.4,4.37,2.22,2.49.84-.88.31-5.31.61-6.59.34-1.44,1.24-5.12,3.04-5.51,2.73-.6.12,2.9.43,4.09.69,2.67,1.44-1.49,2.05-2.19,2.03-2.31.91,2.24.92,3.53.02,1.78.86,4.32,1.37,1.45.27-1.52-.47-5.16,1.24-2.82,1.38,1.88,1.9,5.34,2.36,7.61.56,2.78.82,5.76.33,8.57-.82,4.67-4.75,7.31-9.06,8.55-10.02,2.89-19.26-6.77-18.3-16.73-.29-5.62,1.51-10.96,4.97-15.38,1.5-1.92,3.29-3.68,5.12-5.3.86-.76,5.91-4.19,4.44-.53-.76,1.87-4.46,3.35-4.48,5.75Z"/>
      <path class="cls-1" d="m260.51,118.55c.39.43-.16.92-.43,1.3-3.55,5.25-9.22,7.42-14.44,8.11-1.21.04-1.36-1.16-1.85-1.95-1.11-1.83-1.09-1.91,1.02-2.13,5.19-.55,9.83-2.66,14.38-5.02.41-.21.91-.78,1.32-.31Z"/>
      <path class="cls-1" d="m245.79,118.7c3.33-.29,6.68-1.03,9.87-2.05,1.01-.33,6.98-3.56,7.51-3.07,1.35,1.25-7.47,5.83-8.11,6.12-3.71,1.72-7.55,3.07-11.66,3.38-1.25.41-1.95-.53-2.75-1.28-.28-.27-2.43-2.23-2.42-2.51.04-1.43,6-.46,7.56-.59Z"/>
      <path class="cls-1" d="m235.58,128.44c-2.66-.61-5.35-1.03-8.05-1.43-3.53-.53-11.74-.45-13.39-4.46-1.88-4.61,4.5-7.62,8.06-7.38,4.2-.29,8.29.74,11.78,3.11,2.27,1.56,7.1,5.36,7.75,8.2.48,2.06-2.19-.38-3.33-.98-2.35-1.23-4.84-2.17-7.37-2.94-.62-.19-4.79-1.77-4.91-.32-.09,1.14,5.17,2.04,5.95,2.32,2.36.85,4.64,1.92,6.81,3.18.53.31,4.21,1.97,2.57,2.65.05-.02-2.3-.97-2.27-.97-1.17-.42-2.39-.69-3.6-.98Z"/>
      <path class="cls-1" d="m242.33,148.83c.61.69,3.76,4.06,3.38,5.02-.54,1.38-4.9,1.57-5.95,1.59-.44-.06-4.4-.28-4.47-.83-.1-.78,2.91-4.01,3.35-4.86,1.27-2.45,1.44-3.48,3.69-.92Z"/>
      <path class="cls-1" d="m214.71,160.61c-1.26.36-.75.8-.83-.54-.13-2.41,2.29-6.38,3.48-8.4,3-5.06,7.54-7.83,13.42-8.17,2.3.02,7.01.26,6.91,3.11-.08,2.24-2.57,5.35-4.3,6.6-2.31,1.67-5.02,1.33-7.67,1.91-2.75.6-5.32,1.78-7.71,3.24-.97.59-2.24,1.94-3.3,2.25Z"/>
      <path class="cls-1" d="m231.87,161.33c2.11,2.76-1.42,4.42-3.71,4.42-2.12-.15-4.58-.61-4.26-3.25.23-1.93,1.64-2.63,3.41-2.71,1.44-.07,3.61.29,4.56,1.54Z"/>
      <path class="cls-1" d="m244.93,171.61c.59-.73,2.86-2.21,2.49-.19-.65,7.2-3.28,19.14-11.42,21.44-3.3.93-6.8-.62-8.96-3.15-1.76-2.06-4.85-8.09-4.04-10.87.29-1.01,2.73-3.55,3.84-3.83,1.55-.39,1.22.71,1.91,2.25,1.35,3.01,3.93,6.1,7.56,5.86,3.8-.24,6.03-3.71,7.1-6.99.47-1.42.55-3.34,1.52-4.52Z"/>
      <path class="cls-1" d="m246.01,185.19c1.46-3.07,2.41-6.35,2.99-9.69.34-1.95.57-3.93.69-5.91.06-.89-.49-4.48.1-4.89,1.73,4.25,1.71,10.49,1.66,15.05-.22,9.17-.86,20.25-8.14,26.88-5.45,4.98-13.17,5.12-19.53,1.83-8.35-4.31-10.74-13.75-11.93-22.38-.68-4.93-.85-10.17-.06-15.1.36-2.28,1.03-4.54,2.36-6.45.39-.56,4.42-5.17,5.33-4.53.44.32-.08,4.34-.09,4.86-.02,1.96.02,3.92.14,5.88.23,3.88.74,7.79,1.77,11.55,1.57,5.7,5.09,12.31,11.66,12.92,6.41.59,10.59-4.81,13.05-10.02Z"/>
      <path class="cls-1" d="m243.85,219.84c.63.17,3.34-.51,2.41,1.04-.5.84-4.09,1.19-4.82,1.27-.59.06-4.24.54-3.49-.89.67-1.26,4.73-1.63,5.9-1.42Z"/>
      <path class="cls-1" d="m187.41,228.55c1.02-.04,4.08-.91,3.92.6-.15,1.33-3.76,1.87-4.7,1.78-.83,0-4.81-.28-4.24-1.99.3-.9,4.21-.36,5.02-.39Z"/>
      <path class="cls-1" d="m169.1,228.46c-1.04-2.1.7-1.31,2.59-1.04,1.2.17,6.13.17,6.65,1.08.95,1.68-3.03,2.6-3.91,2.47-1.84.22-4.44-.72-5.33-2.51Z"/>
      <path class="cls-1" d="m172.32,238.64c2.94-1.86,6.2-2.31,9.63-2.11,3.58-.19,7.04.3,10.09,2.44.29.2.77.31.71.77-.06.38-.5.39-.79.53-6.47,3.11-13,2.55-19.56.32-.48-.16-1.19-.27-1.21-.91-.02-.62.69-.76,1.13-1.04Z"/>
      <path class="cls-1" d="m124.05,218.67c2.47-.14,5.66.4,2.86,2.82-2.18,1.88-5.03,3.12-7.88,3.46-2.14-.13-3.88-.83-2.17-2.89,1.59-1.9,4.77-3.25,7.19-3.39Z"/>
      <path class="cls-1" d="m150.31,166.45c3.2-.75,1.19,22.1.75,24.08-1.76,7.8-5.2,15.76-13.09,18.91-6.82,2.72-15.18,1.26-19.63-4.85-4.96-6.8-6.72-16.25-6.26-24.53.16-5.07-.61-12.73,2.41-17.09,2.12-3.07,7.49-4.89,10.78-2.49,1.45,1.06,2.02,3.25.54,4.5-1.42,1.2-5.26.1-5.89,1.1-.87,1.37.29,6.69.44,8.19.28,2.68.76,5.3,1.46,7.89,1.21,4.5,3.07,9.38,7.4,11.74,3.58,1.94,7.95,1.58,11.25-.77,3.87-2.77,6.09-7.6,7.47-12.01.79-2.51,1.44-5.12,1.81-7.72.15-1.02.09-6.84.56-6.95Z"/>
      <path class="cls-1" d="m124.28,169.02c-.63-2.52,3.26-2.74,4.07-.6-.25,1.89-3.55,2.73-4.07.6Z"/>
      <path class="cls-1" d="m142.65,178.66c.78-1.02,1.57-2.02,2.97-2.29,1.52-.29,1.29-.45,1.07,1.34-.74,5.99-5.26,14.97-12.06,15.44-3.19-.04-5.7-1.67-7.6-4.13-1.41-1.81-4.13-6.24-3.17-8.56.33-.81,3.61-3.8,4.46-3.68,1.03.15,1.65,2.35,2.3,3.17,1.01,1.27,2.36,2.4,3.93,2.9,3.92,1.26,6-1.44,8.1-4.19Z"/>
      <path class="cls-1" d="m122.5,147.66c.67-.66,1.16-.74,1.54.27.83,2.22,2.14,4.13,3.81,5.8.61.62.67,1.06-.36,1.2-1.44.19-2.88.4-4.32.6-1.72-.05-3.3-.55-4.85-1.21-.59-.25-.89-.58-.41-1.23,1.41-1.91,2.89-3.76,4.59-5.43Z"/>
      <path class="cls-1" d="m149.79,161.16c-.18.12-6.66-4.18-7.57-4.57-3.29-1.43-6.57-1.3-9.92-2.23-2.87-.79-4.93-4.08-6.01-6.67-.83-1.97-.66-2.34,1.28-3.11,1.7-.67,3.58-1.14,5.41-1.09,4.07.42,8.09,1.76,10.92,4.84,1.19,1.3,7.27,11.85,5.89,12.83Z"/>
      <path class="cls-1" d="m120.31,116.76c-.66.39-7.11,5.58-7.1,5.58-.85-.59,4.26-6.55,4.91-7.21,2.08-2.13,4.53-3.87,7.27-5.04,4.54-1.93,15.72-3.56,16.03,4,.01,6.49-10.49,5.93-15.04,6.69-1.96.33-3.92.74-5.85,1.21-1.02.25-4.17,1.7-4.99,1.42-1.2-.41,4.07-4.36,4.93-4.89,2.5-1.52,5.28-2.52,8.11-3.21.58-.15,3.5-.3,3.91-.96,1.02-1.66-1.35-1.41-2.16-1.32-3.47.38-7.04,1.98-10.02,3.73Z"/>
      <path class="cls-1" d="m143.69,311.52c6.05,1.78,12.46,2.46,18.64.89,2.97-.76,5.99-1.99,8.48-3.81.61-.44,4.95-5.14,5.17-5.01,1.48.83-3.96,6.13-4.56,6.63-2.94,2.45-6.12,4.14-9.88,4.93-7.12,1.5-14.93.92-21.8-1.39-3.31-1.11-6.3-2.81-9.47-4.24-1.81-.82-3.66-1.55-5.53-2.21-1.28-.45-3.95-1.88-5.37-1.41-3.72,1.24,4.34,3.21,5.47,3.62,1.49.55,2.93,1.24,4.37,1.93,1.05.51,5.11,1.81,5.68,2.75,2.31,3.86-9.12,12.03-12.32,12.62-2.92.53-5.81-1.1-7.46-3.45-.37-.54-.98-2.76-1.45-3.01-1.87-1.02-.21,2.33.1,2.84.64,1.07,1.41,2.06,2.42,2.82.34.25,3.56,1.51,3.53,1.92-.09,1.33-6.2-.29-6.99-.55-4.77-1.53-7.91-5.03-8.5-10.06-.19-1.65-.11-3.33.13-4.98.07-.5,1.19-3.76-.28-3.24-1.41.49-.99,6.45-.89,7.53.24,2.62.93,5.45,2.57,7.57.95,1.22,8.81,5.21,8.79,5.31-.34,1.68-6.51-.62-7.35-1.03-1.92-.91-3.71-2.14-5.12-3.73-2.69-3.04-3.63-7.02-3.37-11,.74-11.54,11.36-19.85,15.43-30.26.53-1.36,1.5-4.1-.32-1.91-1.53,1.84-2.21,5.25-3.43,7.4-2.82,4.95-6.51,9.33-9.35,14.27-2.69,4.69-4.13,10.19-3,15.58,1.14,5.46,4.59,7.17,8.3,10.69-3.09.56-7.1-2.32-9.09-4.49-2.93-3.18-3.6-7.09-3.04-11.26,1.28-9.72,8.55-16.94,12.31-25.62,1.69-3.88,2.66-8.18,2.13-12.41-.23-1.81-.73-3.58-1.44-5.26-.56-1.31-1.89-4.84-3.33-5.38-2.64-1-1,1.8-.44,2.69.98,1.55,1.78,3.2,2.29,4.97,1.24,4.3.82,8.98-.65,13.16-3.07,8.73-10.15,15.46-12.42,24.6-1.9,7.61.05,14.85,6.9,19.03,1.37.84,3.67,1.1,2.76,2.6-.65,1.07-4.43,1.82-5.71,2.12-4.45,1.02-8.23.18-11.02-3.5-1.15-1.51-1.97-3.21-2.41-5.06-.16-.65-.04-3.71-.97-3.76-2.1-.1,2.18,9.07,2.77,9.78.57.7,3.41,2.63,2.36,3.08-.99.42-4.02-2.2-4.72-2.9-3.57-3.54-4.59-9.29-3.87-14.11.19-1.34.72-3.58-.72-1.62-1.13,1.54-.76,5.39-.5,7.16.34,2.33,1.23,4.42,2.36,6.47.29.53,3,3.94,2.95,4.03-1.29,2.09-6.76-5.49-7.15-6.46-1.6-4.03-1.58-8.76-.18-12.84,1.4-4.09,4.12-7.35,7.14-10.36,1.03-1.02,3.8-2.98,4.1-4.45.49-2.36-1.69.46-2.35,1.13-6.48,6.55-12.56,13.92-10.49,23.77.22,1.02,3.89,8.44,3.99,8.34-2.48,2.6-6.23-8.06-6.36-9.19-1.1-9.67,5.36-18.22,10.82-25.45,2.57-3.4,5.32-6.74,6.58-10.89.59-1.97,1.17-5.21-.06-7.09-1.65-2.51-1.94-.36-1.73,1.47,1.08,9.31-8.15,16.36-12.45,23.72-1.02,1.75-1.97,3.57-2.83,5.4-.66,1.42-1.21,5.49-2.25,6.42-1.18,1.06-2.9-.38-3.89-1.26-1.85-1.64-1.7-3.35-2.65-5.36-.71-1.47-.94-1.34-1.01.18-.08,1.89,1.46,4.42,2.67,5.76.74.83,4.61,2.66,4.43,3.62-.4,2.19-5.22-.68-5.94-1.28-3.37-2.82-5.72-6.93-6.42-11.26-.23-1.4.86-12.39,1.04-12.32-1.95-.84-2.25,10.7-2.13,11.56.62,4.12,2.3,8.27,5.19,11.32,1.16,1.23,2.5,2.29,4.03,3.02.84.4,3.74.66,4.12,1.56,1.45,3.48-7.82-.07-8.69-.62-6.73-4.21-9.05-12.27-7.87-19.81,1.39-8.93,7.58-15.52,11.72-23.21,1.79-3.33,3.27-6.84,4.13-10.53.23-.99,1.28-4.12.81-5.03-.9-1.76-1.15,1.8-1.36,2.78-1.92,8.83-6.61,15.46-11.24,22.98-.79,1.27-1.5,2.62-2.13,4.03l-2.02-.9c1.59-3.55,3.55-6.98,5.55-10.5,4.68-8.27,7.84-16.65,8.32-26.23.95-19.13-6.33-38.35-10.77-56.72-4.56-18.89-7.02-38.2-5.39-57.64.8-9.51,2.15-18.54,6.02-27.35,3.36-7.69,7.99-14.63,13.54-20.9,5.84-6.6,12.54-12.4,19.96-17.14,3.35-2.14,6.82-4.16,10.55-5.52,1.18-.43,4.44-1.96,5.62-1.25,1.22.72,1.44,4.89,1.81,6.27.6,2.21,1.28,4.4,2.02,6.56.42,1.23,1.42,2.85.67,4.07-.64,1.04-2.93,2.2-3.83,3.19-1.54,1.7-3.06,3.47-4.49,5.26-1.01,1.27-3.22,3.4-3.56,5.03-.27,1.3-.47,1.28.63.68,1.31-.73,2.77-3.94,3.74-5.17,1.51-1.93,3.09-3.83,4.9-5.48.48-.43,3.44-3.27,4.04-1.91.46,1.05-2.23,3-2.81,3.56-3.14,3.03-6.06,6.18-8.67,9.7-1.04,1.41-3.43,3.83-3.81,5.52-.44,1.94.47.92,1.33-.18,2.78-3.58,5.16-7.34,8.23-10.71.92-1.01,5.67-6.6,7.06-5.19,1.22,1.24-2.43,3.59-3.18,4.43-1.73,1.95-3.32,4.06-4.83,6.18-2.4,3.36-4.54,6.91-6.33,10.63-.92,1.9-1.72,3.83-2.48,5.79-.61,1.56-2.69,4.94-2.48,6.62s.65.37,1.13-.19c1.37-1.61,1.94-5.31,2.76-7.31,1.79-4.36,3.94-8.51,6.51-12.46,2.17-3.32,4.54-6.91,7.49-9.6.88-.81,2.49-2.29,3.56-.96,1.23,1.53-2.33,4.84-3.17,6.15-20.52,31.87-21.96,72.98-11.55,108.46,4.99,17.04,13.09,33.85,24.68,47.41,5.44,6.38,11.86,11.94,19.13,16.15,3.49,2.03,7.17,3.79,10.91,5.31,3.82,1.55,9,1.8,12.35,4.06,3.13,2.11,6.21,7.04,7.51,10.51,1.43,3.81-1.28,7.67-4.14,10.1-2.49,2.12-5.61,3.34-8.76,4.1-2.32.56-4.69.85-7.07.86-1.32,0-5.82-1.18-6.77-.52-1.74,1.2,2.91,1.6,3.38,1.64,2.2.2,4.41.15,6.61-.12,4.02-.49,8.19-1.61,11.6-3.89,1.4-.93,2.68-2.06,3.73-3.38.64-.8,1.64-3.46,2.57-3.73,1.48-.43.07,3.76-.17,4.3-.86,1.91-2.32,3.59-3.83,5.01-5.11,4.8-12.04,5.93-18.8,5.92-5.94.39-12.99-2.47-18.52-4.41-2.79-.98-3.43-.04-.44.89,3.09.97,6.13,2.1,9.23,3.02Z"/>
      <path class="cls-1" d="m265.23,177.84c0,5.93.14,11.87-.57,17.77-.67,5.66-1.63,11.3-2.42,16.96-1.62,11.63-5.17,22.17-8.77,33.28-1.57,4.84-2.64,9.57-6.37,13.25-3.84,3.8-8.74,6.52-13.42,9.12-9.57,5.33-19.53,9.51-30.43,11.18-5.53.85-11.13,1.14-16.72,1.3-22.09-.66-43.05-7.84-58.13-24.57-14.76-16.39-23.89-37.59-28.67-58.94-5.03-22.5-4.67-45.91,1.73-68.07,2.89-10.01,7.04-20.41,13.02-29.01.44-.63,1.64-2.76,2.31-2.92.91-.22,1.51.67,2.21,1.37,1.91,1.91,3.75,3.9,5.79,5.67.94.81,2.94,1.72,2.59,2.69-.19.51-5.63,2.49-6.56,3.16-3.73,2.67-7.53,6.56-9.47,10.76-.79,1.7-1.74,4.06-1.64,5.97.15,3.12,2.6.84,4.39-.17,4.76-2.67,9.97-3.2,15.28-3.89,2.84-.38,5.74-.79,8.49-1.61.95-.29,1.85-.56,2.69-1.1.76-.47,1.6-1.77,2.48-1.94,1.52-.29,4.98,2.39,6.35,3.06,2.39,1.18,4.81,2.26,7.28,3.25,5.19,2.07,10.54,3.63,16.02,4.75,11.29,2.3,22.84,2.39,33.99-.79,2-.57,4.84-2.53,6.81-2.59,1.94-.07,4.68,1.88,6.75,2.35,5.26,1.19,10.64,1.26,15.87,2.71,2.03.56,4.35,1.06,6.06,2.37,1.28.98,3.15,3.55,4.14.83.43-1.17-.63-2.64.31-3.71.9-1.02,3.5-.97,4.71-1.37,2.3-.75,4.02-2.28,6.16-3.25,2.39-1.08,1.24,1.21,1.33,3.32.11,2.67.75,5.27,1.64,7.78.8,2.27,2.55,4.06,3.21,6.28.74,2.51.4,5.58.51,8.18.13,3.14.26,6.27.41,9.4.28,5.73.63,11.43.64,17.17Zm-9.31-12.62c.92.01,4.49.28,4.12-1.58-.48-2.39-7.71,1.5-8.4-2.5-.38-2.22,2.6-1.98,3.98-3.27,1.04-.96,1.74-2.96-.15-2.58-1.3.26-3.04,3.16-4.72,2.57-1.6-.57-1.56-3.04-1.06-4.07.55-1.12,7.11-8.98,3.54-9.72-2.52-.53-2.37,7.66-4.9,8.34-1.07.29-3.76-4.16-4.55-5.02-1.9-2.08-2.97-2.57-2.59-5.45.14-1.08,1.03-4.16.22-5.24-1.19-1.62-1.86-.12-2.12,1.04-.39,1.69.6,4.81-1.54,5.01-1.37.13-3.61-1.34-5.06-1.55-4.29-.61-8.35.89-11.77,3.44-7.14,5.32-9.67,15.29-11.07,23.67-1.62,9.69-.91,20.65,2.72,29.86,2.81,7.15,9.04,14.34,17.22,14.87,9.13.16,15.85-3.63,19.93-11.81,4.87-9.79,4.86-21.92,3.28-32.5-.57-3.83-.78-3.54,2.92-3.51Zm-7.05,56.37c1.81-3.08-2.62-4.03-4.72-3.9-2.63-.1-6.98.52-8.52,3.03-1.68,2.73,1.9,3.68,3.98,3.86,2.62.22,7.76-.43,9.26-2.99Zm-32.73,14.22c.68-2.43-3.6-1.37-4.67-1.28-5.77-.15-11.3-2.78-14.01-8.09-1.22-2.41-1.54-4.85-1.14-7.5.62-4.13-1.72-3-2.21.35-.31,2.08,1.38,5.53-.54,6.45-2.13,1.01-6.69.48-9.08.48-6.08,0-12.08-.97-18.09-1.76-4.45-.58-7.71.91-6.43,5.93,1.23,4.82,4.91,8.51,9.13,10.9,8.52,4.83,21.54,4.82,28.72-2.54,1.16-1.18,2.34-4.29,4-4.42.75-.06,2.12,1.03,2.83,1.32,1.26.51,2.57.89,3.91,1.11,1.27.21,7.08.86,7.58-.95Zm-41.19-28.54c1.33.15,8.16-1.35,5.86-3.8-.97-1.03-1.79.47-2.57.96-1.33.82-2.78,1.07-4.24.27-2.87-1.57-2.25-5.07-.01-6.88,2.16-1.74,4.55-2.25,4.61-5.56-.02-1.1.03-3.52-.94-4.33-1.5-1.26-1.44,0-1.52,1.19-.24,3.4,1.06,4.29-2.21,6.17-4.79,2.76-5.74,11.17,1.02,11.98Zm-20.34-28.13c-.28-9.82-1.45-22.73-7.89-30.75-2.69-3.35-6.82-6.17-11.06-7.04-2.47-.5-5-.32-7.4.43-3.21,1-3.53,1.6-3.83-2.09-.07-.91.11-4.65-1.9-3.38-1.15.73-.08,4.68.06,5.71.56,3.85-3.54,5.68-5.55,8.71-.91,1.38-.65,1.95-2.1,1.14-.7-.38-1.4-1.95-1.75-2.63-.49-.94-1.11-4.69-2.08-5.06-3.06-1.2.38,6.95,1.08,7.86,1.03,1.35,3.62,4.06.79,5.58-1.72.92-3.32-2.1-4.93-2.32-2.84-.4-.66,2.46.59,3.19,1.31.77,3.37.56,3.25,2.47-.28,4.33-7.42.36-8.15,2.65-.74,2.29,6.44.8,7.27,2.44.69,1.38-.59,5.26-.71,6.76-.22,2.69-.34,5.4-.31,8.1.05,4.38.41,8.82,1.41,13.1,1.98,8.42,6.94,16.51,15.82,18.69,7.46,1.83,15.48-1.88,20.07-7.79,5.73-7.37,6.36-16.84,7.32-25.77Zm-25,42.86c2.19-3.35-1.45-5.76-4.62-5.78-3.36-.02-7.78,2.17-10.1,4.58-3.42,3.55.83,6.21,4.39,6.24,3.47-.49,8.31-1.94,10.33-5.04Z"/>
      <path class="cls-1" d="m244.87,84.61c.25,5.46,3.16,10.32,7.2,13.85,2.2,1.92,4.61,3.83,7.22,5.16,1.4.7,2.85,1.23,4.38,1.57.54.12,3.63.05,3.93.75.94,2.22-14.51,5.36-16.1,5.48-6.11.46-12.37-.05-18.18-2.06-.99-.34-6.12-3.47-6.87-3.16-1.79.72,4.78,3.5,5.39,3.74,5.82,2.32,12.85,3.3,19.07,2.7,6.31-.61,11.58-2.99,17.43-5.15.03,1.38-3.15,3.44-4.11,4.06-1.99,1.29-4.26,2.24-6.42,3.2-4.48,1.98-9.33,2.95-14.23,2.7-2.71.05-5.93.3-8.42-.87-2.76-1.3-4.96-2.96-8.07-3.44-2.8-.43-5.48.1-8.2-.88-3-1.08-5.52-3.2-8.01-5.11-.87-.67-4.72-4.46-5.11-2.92-.22.85,6.08,4.98,6.95,5.64,1.02.77,5.66,2.95,4.57,4.11-1.45,1.54-6.51-2-7.73-2.73-2.8-1.67-5.42-3.63-7.98-5.65-1.12-.89-2.24-1.78-3.35-2.69-.73-.6-2.53-2.8-3.46-2.97-1.6-.29,3.06,4.09,3.59,4.52,2.78,2.21,5.64,4.35,8.59,6.34,1.31.88,6.89,3.32,7.16,4.78.1.52-.58,1.26-.91,1.73-.87,1.21-.61,1.54-2.24,1-2.58-.85-5.27-3.01-7.58-4.45-2.96-1.86-5.83-3.85-8.6-5.99-5.08-3.94-9.44-8.46-13.87-13.09-.69-.72-4.29-5.66-5.28-5.66-3.32.02,2.33,5.58,2.88,6.21,8.55,9.65,18.53,17.57,29.77,23.86,1.98,1.1,5.41,2.17,2.73,4.37-2.47,2.03-6.01,2.96-9.07,3.61-6.43,1.36-12.98,1.82-19.52,1.22-6.88-.64-13.66-2.28-20.21-4.46-3-1-5.94-2.15-8.85-3.4-1.54-.66-3.07-1.36-4.59-2.08-1.22-.57-3.95-1.26-4.69-2.41-.58-.89-.28-2.36-.58-3.37-.36-1.27-1.04-2.44-1.93-3.4-2.33-2.48-4.88-2.36-7.99-2.78-5.88-.8-11.6-6.93-15.06-11.39-4.69-6.06-6.89-12.93-8.81-20.22-.95-3.6-1.7-7.21-2.07-10.91-.39-3.81-1.14-8.33.07-12.06,1.1,5.2,1.5,10.51,2.78,15.7,1.29,5.25,3.08,10.35,5.41,15.23,2.24,4.66,4.96,9.02,8.16,13.08,1.2,1.53,3.44,2.95,1.54.27-1.54-2.19-3.24-4.24-4.68-6.51-5.9-9.28-9.43-19.87-11.19-30.68-.81-4.97-2.23-11.25-1.18-16.23.29-1.4,4.52-14.03,5.91-13.46.47.19-1.44,7.91-1.59,8.84-.56,3.43-.87,6.84-.69,10.32.35,6.64,1.84,13.35,3.96,19.64,3.98,11.79,11.16,22.72,20.48,30.98,9.91,8.77,22.25,12.92,34.89,16.1,3.31.83,6.67,1.44,10.06,1.79,1.14.12,7.51,1.23,8.16.17.42-.68-6.08-1.08-6.7-1.14-3.37-.3-6.68-.91-9.97-1.69-12.33-2.89-25.53-6.76-35.18-15.38-9.9-8.84-17.44-20.43-21.44-33.05-3.86-12.16-4.56-26.5.1-38.57.8-2.07,2.57-6.47,4.95-7.21.8-.25.53-.79.9.23.33.91-.86,4.43-1.01,5.49-.96,6.78-.92,13.71-.15,20.51,1.34,11.75,5.22,25.3,13.63,34.03.29.31,4.57,4.49,4.08,2.38-.18-.76-2.48-2.33-3.02-2.92-1.17-1.27-2.26-2.66-3.3-4.04-3.68-4.88-5.82-10.81-7.69-16.57-2.16-6.68-3.06-13.68-3.14-20.68-.08-6.53-.33-14.56,2.48-20.62,2.09-4.51,9.19-7.86,13.49-9.99,5.2-2.57,10.8-4.27,16.57-4.94,13.8-1.6,27.39,1.46,39.94,7.14,12.24,5.53,21.46,15.15,32.73,22.19,10.85,6.77,23.94,11.4,33.09,20.55,3.81,3.82,7.01,8.37,9.34,13.24,1.29,2.72,1.23,5.32,1.76,8.22.16.84,1.29,3.48,1.09,4.18-.36,1.26-1.97-.72-2.48-1.11-4.92-3.8-11.37-6.58-17.54-4.39-5.02,1.78-7.62,6.38-7.39,11.6Z"/>
      <path d="m378.1,182.41c-5.48-.89-4.06-12.83-4.28-16.63-.06-1.21-1.42-7.88.47-5.16,1.31,1.87.91,7.21.8,9.44,0,2.9-.33,6.02.82,8.76.9,2.14,3.22,3.58,4.7,1.03.34-.59,0-2.36.63-2.73,1.26-.75,1.28.61,1.27,1.33-.02,2.1-2.36,4.3-4.41,3.96Z"/>
      <path d="m371.91,171.91c.44,4.24.04,12.18,4.53,14.56,5.48,2.9,7.62-5.75,7.33-9.46-.42-8.11-2.31-15.7-6.19-22.85-1.89-3.48-3.79-7.01-6.42-10-.71-.81-6.88-6.98-8.08-5.83-.49.47,3.13,6.66,3.49,7.55,1.07,2.64,1.74,5.4,2.37,8.18,1.34,5.88,2.34,11.85,2.97,17.85Zm-7.79-26.23c-.99-2.69-2.23-5.02-3.95-7.3-.64-.84-1.72-1.45-1.11-2.66.66-1.31,2.33-.57,3.27-.24,5.11,1.81,9.29,5.61,12.44,9.93,6.69,9.21,11.21,20.59,11.35,32.05.26,4.53-1.58,11.03-6.82,11.61-4.8.53-7.18-3.5-8.4-7.61-1.73-5.8-1.46-12.29-2.33-18.27-.88-5.98-2.35-11.84-4.45-17.51Z"/>
      <path d="m350.43,128.24c.64.21,1.23-.45,1.63-.36,1.78.39.17,1.23-1.13,1.46-1.45,0-3.34-.9-3.27-2.6.1-2.27,1-.85,1.65,0,.42.54.32,1.22,1.12,1.5Z"/>
      <path d="m357.09,126.57c-.01,8.85-13.01,8.36-13.35-.23-.35-8.74,13.35-8.32,13.35.23Zm-7.14-4.44c-5.6.3-5.14,8.74.2,8.79,6.24.07,5.9-9.12-.2-8.79Z"/>
      <path d="m345.43,112.82c-5.79-.06-4.77-8.29.65-8.08,5.27.2,4.42,8.13-.65,8.08Zm1.79-4.48c-.24-3.03-4.4-.5-3.55,1.55.9,2.17,3.61.33,3.55-1.55Z"/>
      <path d="m246.26,220.88c.93-1.55-1.78-.87-2.41-1.04-1.17-.21-5.23.16-5.9,1.42-.75,1.43,2.9.95,3.49.89.73-.08,4.32-.43,4.82-1.27Zm-2.11-3.19c2.1-.13,6.53.82,4.72,3.9-1.5,2.56-6.64,3.21-9.26,2.99-2.08-.18-5.66-1.13-3.98-3.86,1.54-2.51,5.89-3.13,8.52-3.03Z"/>
      <path d="m213.88,160.07c.08,1.34-.43.9.83.54,1.06-.31,2.33-1.66,3.3-2.25,2.39-1.46,4.96-2.64,7.71-3.24,2.65-.58,5.36-.24,7.67-1.91,1.73-1.25,4.22-4.36,4.3-6.6.1-2.85-4.61-3.09-6.91-3.11-5.88.34-10.42,3.11-13.42,8.17-1.19,2.02-3.61,5.99-3.48,8.4Zm31.83-6.22c.38-.96-2.77-4.33-3.38-5.02-2.25-2.56-2.42-1.53-3.69.92-.44.85-3.45,4.08-3.35,4.86.07.55,4.03.77,4.47.83,1.05-.02,5.41-.21,5.95-1.59Zm-2.4,52.78c7.28-6.63,7.92-17.71,8.14-26.88.05-4.56.07-10.8-1.66-15.05-.59.41-.04,4-.1,4.89-.12,1.98-.35,3.96-.69,5.91-.58,3.34-1.53,6.62-2.99,9.69-2.46,5.21-6.64,10.61-13.05,10.02-6.57-.61-10.09-7.22-11.66-12.92-1.03-3.76-1.54-7.67-1.77-11.55-.12-1.96-.16-3.92-.14-5.88.01-.52.53-4.54.09-4.86-.91-.64-4.94,3.97-5.33,4.53-1.33,1.91-2,4.17-2.36,6.45-.79,4.93-.62,10.17.06,15.1,1.19,8.63,3.58,18.07,11.93,22.38,6.36,3.29,14.08,3.15,19.53-1.83Zm12.31-48.76c-1.38,1.29-4.36,1.05-3.98,3.27.69,4,7.92.11,8.4,2.5.37,1.86-3.2,1.59-4.12,1.58-3.7-.03-3.49-.32-2.92,3.51,1.58,10.58,1.59,22.71-3.28,32.5-4.08,8.18-10.8,11.97-19.93,11.81-8.18-.53-14.41-7.72-17.22-14.87-3.63-9.21-4.34-20.17-2.72-29.86,1.4-8.38,3.93-18.35,11.07-23.67,3.42-2.55,7.48-4.05,11.77-3.44,1.45.21,3.69,1.68,5.06,1.55,2.14-.2,1.15-3.32,1.54-5.01.26-1.16.93-2.66,2.12-1.04.81,1.08-.08,4.16-.22,5.24-.38,2.88.69,3.37,2.59,5.45.79.86,3.48,5.31,4.55,5.02,2.53-.68,2.38-8.87,4.9-8.34,3.57.74-2.99,8.6-3.54,9.72-.5,1.03-.54,3.5,1.06,4.07,1.68.59,3.42-2.31,4.72-2.57,1.89-.38,1.19,1.62.15,2.58Zm-8.2,13.55c.37-2.02-1.9-.54-2.49.19-.97,1.18-1.05,3.1-1.52,4.52-1.07,3.28-3.3,6.75-7.1,6.99-3.63.24-6.21-2.85-7.56-5.86-.69-1.54-.36-2.64-1.91-2.25-1.11.28-3.55,2.82-3.84,3.83-.81,2.78,2.28,8.81,4.04,10.87,2.16,2.53,5.66,4.08,8.96,3.15,8.14-2.3,10.77-14.24,11.42-21.44Zm-19.26-5.67c2.29,0,5.82-1.66,3.71-4.42-.95-1.25-3.12-1.61-4.56-1.54-1.77.08-3.18.78-3.41,2.71-.32,2.64,2.14,3.1,4.26,3.25Z"/>
      <path d="m173.99,197.82c-2.24,1.81-2.86,5.31.01,6.88,1.46.8,2.91.55,4.24-.27.78-.49,1.6-1.99,2.57-.96,2.3,2.45-4.53,3.95-5.86,3.8-6.76-.81-5.81-9.22-1.02-11.98,3.27-1.88,1.97-2.77,2.21-6.17.08-1.2.02-2.45,1.52-1.19.97.81.92,3.23.94,4.33-.06,3.31-2.45,3.82-4.61,5.56Z"/>
      <path d="m191.33,229.15c.16-1.51-2.9-.64-3.92-.6-.81.03-4.72-.51-5.02.39-.57,1.71,3.41,1.99,4.24,1.99.94.09,4.55-.45,4.7-1.78Zm-18.93,11.44c6.56,2.23,13.09,2.79,19.56-.32.29-.14.73-.15.79-.53.06-.46-.42-.57-.71-.77-3.05-2.14-6.51-2.63-10.09-2.44-3.43-.2-6.69.25-9.63,2.11-.44.28-1.15.42-1.13,1.04.02.64.73.75,1.21.91Zm-.71-13.17c-1.89-.27-3.63-1.06-2.59,1.04.89,1.79,3.49,2.73,5.33,2.51.88.13,4.86-.79,3.91-2.47-.52-.91-5.45-.91-6.65-1.08Zm26.13,11.33c-7.18,7.36-20.2,7.37-28.72,2.54-4.22-2.39-7.9-6.08-9.13-10.9-1.28-5.02,1.98-6.51,6.43-5.93,6.01.79,12.01,1.75,18.09,1.76,2.39,0,6.95.53,9.08-.48,1.92-.92.23-4.37.54-6.45.49-3.35,2.83-4.48,2.21-.35-.4,2.65-.08,5.09,1.14,7.5,2.71,5.31,8.24,7.94,14.01,8.09,1.07-.09,5.35-1.15,4.67,1.28-.5,1.81-6.31,1.16-7.58.95-1.34-.22-2.65-.6-3.91-1.11-.71-.29-2.08-1.38-2.83-1.32-1.66.13-2.84,3.24-4,4.42Z"/>
      <path d="m124.05,218.67c-2.42.14-5.6,1.49-7.19,3.39-1.71,2.06.03,2.76,2.17,2.89,2.85-.34,5.7-1.58,7.88-3.46,2.8-2.42-.39-2.96-2.86-2.82Zm-4.77,8.37c-3.56-.03-7.81-2.69-4.39-6.24,2.32-2.41,6.74-4.6,10.1-4.58,3.17.02,6.81,2.43,4.62,5.78-2.02,3.1-6.86,4.55-10.33,5.04Z"/>
      <path d="m128.35,168.42c-.81-2.14-4.7-1.92-4.07.6.52,2.13,3.82,1.29,4.07-.6Zm-10.44-15.33c-.48.65-.18.98.41,1.23,1.55.66,3.13,1.16,4.85,1.21,1.44-.2,2.88-.41,4.32-.6,1.03-.14.97-.58.36-1.2-1.67-1.67-2.98-3.58-3.81-5.8-.38-1.01-.87-.93-1.54-.27-1.7,1.67-3.18,3.52-4.59,5.43Zm16.72,40.06c6.8-.47,11.32-9.45,12.06-15.44.22-1.79.45-1.63-1.07-1.34-1.4.27-2.19,1.27-2.97,2.29-2.1,2.75-4.18,5.45-8.1,4.19-1.57-.5-2.92-1.63-3.93-2.9-.65-.82-1.27-3.02-2.3-3.17-.85-.12-4.13,2.87-4.46,3.68-.96,2.32,1.76,6.75,3.17,8.56,1.9,2.46,4.41,4.09,7.6,4.13Zm15.16-31.99c1.38-.98-4.7-11.53-5.89-12.83-2.83-3.08-6.85-4.42-10.92-4.84-1.83-.05-3.71.42-5.41,1.09-1.94.77-2.11,1.14-1.28,3.11,1.08,2.59,3.14,5.88,6.01,6.67,3.35.93,6.63.8,9.92,2.23.91.39,7.39,4.69,7.57,4.57Zm4.82,17.98c-.96,8.93-1.59,18.4-7.32,25.77-4.59,5.91-12.61,9.62-20.07,7.79-8.88-2.18-13.84-10.27-15.82-18.69-1-4.28-1.36-8.72-1.41-13.1-.03-2.7.09-5.41.31-8.1.12-1.5,1.4-5.38.71-6.76-.83-1.64-8.01-.15-7.27-2.44.73-2.29,7.87,1.68,8.15-2.65.12-1.91-1.94-1.7-3.25-2.47-1.25-.73-3.43-3.59-.59-3.19,1.61.22,3.21,3.24,4.93,2.32,2.83-1.52.24-4.23-.79-5.58-.7-.91-4.14-9.06-1.08-7.86.97.37,1.59,4.12,2.08,5.06.35.68,1.05,2.25,1.75,2.63,1.45.81,1.19.24,2.1-1.14,2.01-3.03,6.11-4.86,5.55-8.71-.14-1.03-1.21-4.98-.06-5.71,2.01-1.27,1.83,2.47,1.9,3.38.3,3.69.62,3.09,3.83,2.09,2.4-.75,4.93-.93,7.4-.43,4.24.87,8.37,3.69,11.06,7.04,6.44,8.02,7.61,20.93,7.89,30.75Zm-6.67,1.98c-1.38,4.41-3.6,9.24-7.47,12.01-3.3,2.35-7.67,2.71-11.25.77-4.33-2.36-6.19-7.24-7.4-11.74-.7-2.59-1.18-5.21-1.46-7.89-.15-1.5-1.31-6.82-.44-8.19.63-1,4.47.1,5.89-1.1,1.48-1.25.91-3.44-.54-4.5-3.29-2.4-8.66-.58-10.78,2.49-3.02,4.36-2.25,12.02-2.41,17.09-.46,8.28,1.3,17.73,6.26,24.53,4.45,6.11,12.81,7.57,19.63,4.85,7.89-3.15,11.33-11.11,13.09-18.91.44-1.98,2.45-24.83-.75-24.08-.47.11-.41,5.93-.56,6.95-.37,2.6-1.02,5.21-1.81,7.72Z"/>
      <path d="m57.06,74.42c0,4.71,6.17,3.15,5.71-1.2-.45-4.13-5.71-2.34-5.71,1.2Zm2.89,5.4c-6.74.09-6.69-10.11-.29-11.01,7.21-1.01,6.56,10.93.29,11.01Z"/>
      <path d="m126.38,120.78c4.55-.76,15.05-.2,15.04-6.69-.31-7.56-11.49-5.93-16.03-4-2.74,1.17-5.19,2.91-7.27,5.04-.65.66-5.76,6.62-4.91,7.21-.01,0,6.44-5.19,7.1-5.58,2.98-1.75,6.55-3.35,10.02-3.73.81-.09,3.18-.34,2.16,1.32-.41.66-3.33.81-3.91.96-2.83.69-5.61,1.69-8.11,3.21-.86.53-6.13,4.48-4.93,4.89.82.28,3.97-1.17,4.99-1.42,1.93-.47,3.89-.88,5.85-1.21Zm35.95,191.63c-6.18,1.57-12.59.89-18.64-.89-3.1-.92-6.14-2.05-9.23-3.02-2.99-.93-2.35-1.87.44-.89,5.53,1.94,12.58,4.8,18.52,4.41,6.76,0,13.69-1.12,18.8-5.92,1.51-1.42,2.97-3.1,3.83-5.01.24-.54,1.65-4.73.17-4.3-.93.27-1.93,2.93-2.57,3.73-1.05,1.32-2.33,2.45-3.73,3.38-3.41,2.28-7.58,3.4-11.6,3.89-2.2.27-4.41.32-6.61.12-.47-.04-5.12-.44-3.38-1.64.95-.66,5.45.53,6.77.52,2.38-.01,4.75-.3,7.07-.86,3.15-.76,6.27-1.98,8.76-4.1,2.86-2.43,5.57-6.29,4.14-10.1-1.3-3.47-4.38-8.4-7.51-10.51-3.35-2.26-8.53-2.51-12.35-4.06-3.74-1.52-7.42-3.28-10.91-5.31-7.27-4.21-13.69-9.77-19.13-16.15-11.59-13.56-19.69-30.37-24.68-47.41-10.41-35.48-8.97-76.59,11.55-108.46.84-1.31,4.4-4.62,3.17-6.15-1.07-1.33-2.68.15-3.56.96-2.95,2.69-5.32,6.28-7.49,9.6-2.57,3.95-4.72,8.1-6.51,12.46-.82,2-1.39,5.7-2.76,7.31-.48.56-.93,1.79-1.13.19-.21-1.68,1.87-5.06,2.48-6.62.76-1.96,1.56-3.89,2.48-5.79,1.79-3.72,3.93-7.27,6.33-10.63,1.51-2.12,3.1-4.23,4.83-6.18.75-.84,4.4-3.19,3.18-4.43-1.39-1.41-6.14,4.18-7.06,5.19-3.07,3.37-5.45,7.13-8.23,10.71-.86,1.1-1.77,2.12-1.33.18.38-1.69,2.77-4.11,3.81-5.52,2.61-3.52,5.53-6.67,8.67-9.7.58-.56,3.27-2.51,2.81-3.56-.6-1.36-3.56,1.48-4.04,1.91-1.81,1.65-3.39,3.55-4.9,5.48-.97,1.23-2.43,4.44-3.74,5.17-1.1.6-.9.62-.63-.68.34-1.63,2.55-3.76,3.56-5.03,1.43-1.79,2.95-3.56,4.49-5.26.9-.99,3.19-2.15,3.83-3.19.75-1.22-.25-2.84-.67-4.07-.74-2.16-1.42-4.35-2.02-6.56-.37-1.38-.59-5.55-1.81-6.27-1.18-.71-4.44.82-5.62,1.25-3.73,1.36-7.2,3.38-10.55,5.52-7.42,4.74-14.12,10.54-19.96,17.14-5.55,6.27-10.18,13.21-13.54,20.9-3.87,8.81-5.22,17.84-6.02,27.35-1.63,19.44.83,38.75,5.39,57.64,4.44,18.37,11.72,37.59,10.77,56.72-.48,9.58-3.64,17.96-8.32,26.23-2,3.52-3.96,6.95-5.55,10.5-1.97,4.34-3.38,8.86-3.61,13.96-.36,7.65,2.13,16.05,9.47,19.62,2.79,1.35,6.75,2.32,9.84,1.62,2.43-.55,1.87-1.38-.33-1.75-1.65-.28-3.2-.6-4.77-1.23-13.29-5.34-13.69-20.01-8.58-31.32.63-1.41,1.34-2.76,2.13-4.03,4.63-7.52,9.32-14.15,11.24-22.98.21-.98.46-4.54,1.36-2.78.47.91-.58,4.04-.81,5.03-.86,3.69-2.34,7.2-4.13,10.53-4.14,7.69-10.33,14.28-11.72,23.21-1.18,7.54,1.14,15.6,7.87,19.81.87.55,10.14,4.1,8.69.62-.38-.9-3.28-1.16-4.12-1.56-1.53-.73-2.87-1.79-4.03-3.02-2.89-3.05-4.57-7.2-5.19-11.32-.12-.86.18-12.4,2.13-11.56-.18-.07-1.27,10.92-1.04,12.32.7,4.33,3.05,8.44,6.42,11.26.72.6,5.54,3.47,5.94,1.28.18-.96-3.69-2.79-4.43-3.62-1.21-1.34-2.75-3.87-2.67-5.76.07-1.52.3-1.65,1.01-.18.95,2.01.8,3.72,2.65,5.36.99.88,2.71,2.32,3.89,1.26,1.04-.93,1.59-5,2.25-6.42.86-1.83,1.81-3.65,2.83-5.4,4.3-7.36,13.53-14.41,12.45-23.72-.21-1.83.08-3.98,1.73-1.47,1.23,1.88.65,5.12.06,7.09-1.26,4.15-4.01,7.49-6.58,10.89-5.46,7.23-11.92,15.78-10.82,25.45.13,1.13,3.88,11.79,6.36,9.19-.1.1-3.77-7.32-3.99-8.34-2.07-9.85,4.01-17.22,10.49-23.77.66-.67,2.84-3.49,2.35-1.13-.3,1.47-3.07,3.43-4.1,4.45-3.02,3.01-5.74,6.27-7.14,10.36-1.4,4.08-1.42,8.81.18,12.84.39.97,5.86,8.55,7.15,6.46.05-.09-2.66-3.5-2.95-4.03-1.13-2.05-2.02-4.14-2.36-6.47-.26-1.77-.63-5.62.5-7.16,1.44-1.96.91.28.72,1.62-.72,4.82.3,10.57,3.87,14.11.7.7,3.73,3.32,4.72,2.9,1.05-.45-1.79-2.38-2.36-3.08-.59-.71-4.87-9.88-2.77-9.78.93.05.81,3.11.97,3.76.44,1.85,1.26,3.55,2.41,5.06,2.79,3.68,6.57,4.52,11.02,3.5,1.28-.3,5.06-1.05,5.71-2.12.91-1.5-1.39-1.76-2.76-2.6-6.85-4.18-8.8-11.42-6.9-19.03,2.27-9.14,9.35-15.87,12.42-24.6,1.47-4.18,1.89-8.86.65-13.16-.51-1.77-1.31-3.42-2.29-4.97-.56-.89-2.2-3.69.44-2.69,1.44.54,2.77,4.07,3.33,5.38.71,1.68,1.21,3.45,1.44,5.26.53,4.23-.44,8.53-2.13,12.41-3.76,8.68-11.03,15.9-12.31,25.62-.56,4.17.11,8.08,3.04,11.26,1.99,2.17,6,5.05,9.09,4.49-3.71-3.52-7.16-5.23-8.3-10.69-1.13-5.39.31-10.89,3-15.58,2.84-4.94,6.53-9.32,9.35-14.27,1.22-2.15,1.9-5.56,3.43-7.4,1.82-2.19.85.55.32,1.91-4.07,10.41-14.69,18.72-15.43,30.26-.26,3.98.68,7.96,3.37,11,1.41,1.59,3.2,2.82,5.12,3.73.84.41,7.01,2.71,7.35,1.03.02-.1-7.84-4.09-8.79-5.31-1.64-2.12-2.33-4.95-2.57-7.57-.1-1.08-.52-7.04.89-7.53,1.47-.52.35,2.74.28,3.24-.24,1.65-.32,3.33-.13,4.98.59,5.03,3.73,8.53,8.5,10.06.79.26,6.9,1.88,6.99.55.03-.41-3.19-1.67-3.53-1.92-1.01-.76-1.78-1.75-2.42-2.82-.31-.51-1.97-3.86-.1-2.84.47.25,1.08,2.47,1.45,3.01,1.65,2.35,4.54,3.98,7.46,3.45,3.2-.59,14.63-8.76,12.32-12.62-.57-.94-4.63-2.24-5.68-2.75-1.44-.69-2.88-1.38-4.37-1.93-1.13-.41-9.19-2.38-5.47-3.62,1.42-.47,4.09.96,5.37,1.41,1.87.66,3.72,1.39,5.53,2.21,3.17,1.43,6.16,3.13,9.47,4.24,6.87,2.31,14.68,2.89,21.8,1.39,3.76-.79,6.94-2.48,9.88-4.93.6-.5,6.04-5.8,4.56-6.63-.22-.13-4.56,4.57-5.17,5.01-2.49,1.82-5.51,3.05-8.48,3.81Zm142.61-226.76c-1.21,1.52-2.28,3.15-3.55,4.62-.94,1.09-2.84,2.16-3.29,3.45,1.34.1,2.94-.36,4.2-.83.54-.19,2.59-1.62,2.6-.49,0,1.75-4.93,1.61-5.79,2.7-1.71,2.19,3.6,2.15,4.56,2.06,2.8-.28,5.4-1.3,7.69-2.93.92-.65,3.34-3.95,4.24-2.62,1.07,1.58-2.85,4.47-3.89,5.19-2.31,1.59-4.69,2.11-7.44,2.39-1.49.16-5.03.7-1.8,1.85.9.32,5.35-.54,5.5.26.29,1.57-4.98.65-5.49,1.37-1.03,1.46,5.44.42,5.74.56,2.01.96-2.56,1.54-3.48,1.71-2.19.41-2.47,1.35-.1,1.16,2.79-.22,5.46-1.13,8.31-1.2,1.66-.04,3.3.06,4.93.36,1.05.2,2.45.93,3.5.79,1.94-.26,3.79-3.18,4.58-4.79,1.93-3.96,2.25-10.39-.21-14.2-2.57-3.97-7.53-5.9-12.1-5.78-3.89-.18-6.35,1.41-8.71,4.37Zm-14.96,34.24c-1.85.97,6.23,8.14,7.15,8.66,3.5,2.01,7.46,2.6,11.39,3.14,6.49.04,17.07-.97,19.09-8.47,1.56-5.78-1.5-12.21-6.95-14.7-3.14-1.43-6.77-1.49-10.16-1.12-1.21.13-8.19.51-7.14,2.44,1.13,2.09,8.37-.07,8.42,1.46.05,1.59-7.86-.32-8.68-.04-3.85,1.29,3.61,2.83,4.15,3.12,3.11,1.69-2.54.76-3.55.5-.92-.23-3.63-1.77-3.53.14.06,1.09,2.54,2.06,3.3,2.39,1.31.56,7.92,1.39,7.08,3.24-1.01,2.21-7.48-.88-8.82-1.65-.96-.55-6.17-4.44-5.02-.54.87,2.99,4.99,3.72,7.27,4.96,2.9,1.59-.15,1.11-1.84.44-1.62-.64-3.19-1.45-4.54-2.56-1-.82-2.1-2.82-3.35-2.94-3.61-.37-1.74,3.26-.26,4.5.6.5,2.67,1.24,2.86,2.03.32,1.32-1.61,0-1.91-.16-.77-.42-5.32-4.65-4.96-4.84Zm-11.79-13.4c.37,5.6,5.15,10.74,10.91,10.73,6.58.08,12.57-5.01,11.28-11.77-1.06-5.58-4.64-14.1-11.79-11.58-5.86,2.06-10.86,5.6-10.4,12.62Zm3.56-57.1c-6.93,1.95-8.85,9.66-9.24,15.96.39,4.7.44,9.46,2.08,13.94,1.42,3.88,3.7,7.36,6.05,10.73.59.84,2.08,3.88,3.35,3.5,2.01-.6.3-3.19.76-4.54,1-2.89,1.31,6.45,2.79,1.65.52-1.71-.94-4.8-.29-6.18.92-1.94,1.26,1.86,1.27,1.87.08.64.26,4.53.85,4.64,1.02.19,1.58-2.61,1.73-3.22.94-3.92.37-8.71-.61-12.57-.22-.88-1.85-4.23-1.22-4.91,1.18-1.27,1.74.45,2.12,1.36,1.6,3.82,2.54,8.29,2.37,12.44-.08,1.74-1.93,8.49.97,4.17.49-.74,1.2-3.83,1.88-4.2,1.38-.74.24,2.16.16,2.4-.54,1.59-4.49,6.06-1.25,5.91,2.67-.12,6.5-5.86,7.74-7.94,1.84-3.12,2.89-6.58,2.84-10.21-.1-6.67-3-14.83-7.76-19.63-4.02-4.04-10.92-6.77-16.59-5.17Zm-14.29,127.68c2.63-1.99,1.21-8.82,1.23-11.67.04-4.94.16-9.87.05-14.81-.03-1.5.15-4.38-1.79-5.05-1.59-.55-.65,2.16-.57,3.23.38,4.95.64,9.9.97,14.86,0,4.29-.64,9.22.11,13.44Zm-6.34-48.23c-.96,9.96,8.28,19.62,18.3,16.73,4.31-1.24,8.24-3.88,9.06-8.55.49-2.81.23-5.79-.33-8.57-.46-2.27-.98-5.73-2.36-7.61-1.71-2.34-.97,1.3-1.24,2.82-.51,2.87-1.35.33-1.37-1.45-.01-1.29,1.11-5.84-.92-3.53-.61.7-1.36,4.86-2.05,2.19-.31-1.19,2.3-4.69-.43-4.09-1.8.39-2.7,4.07-3.04,5.51-.3,1.28.23,5.71-.61,6.59-1.82,1.88-2.23-1.48-2.22-2.49,0-2.44.43-4.92,1.44-7.15.71-1.55,3.48-3.83,3.48-5.37,0-.48-1.05-1.95-1.47-2.06-.71-.17-.98.32-1.58.79-.68.53-2.78,4.42-3.28,4.19-1.47-.69,2.97-5.45,3.25-5.97.18-.33,1.46-.95.23-1.23-.58-.13-1.93,1.24-2.25,1.57-.55.57-2.58,4.57-2.56,2.22.02-2.4,3.72-3.88,4.48-5.75,1.47-3.66-3.58-.23-4.44.53-1.83,1.62-3.62,3.38-5.12,5.3-3.46,4.42-5.26,9.76-4.97,15.38Zm-22.72-3.34c1.14.6,3.81,3.04,3.33.98-.65-2.84-5.48-6.64-7.75-8.2-3.49-2.37-7.58-3.4-11.78-3.11-3.56-.24-9.94,2.77-8.06,7.38,1.65,4.01,9.86,3.93,13.39,4.46,2.7.4,5.39.82,8.05,1.43,1.21.29,2.43.56,3.6.98-.03,0,2.32.95,2.27.97,1.64-.68-2.04-2.34-2.57-2.65-2.17-1.26-4.45-2.33-6.81-3.18-.78-.28-6.04-1.18-5.95-2.32.12-1.45,4.29.13,4.91.32,2.53.77,5.02,1.71,7.37,2.94Zm-4.72,142.72c4.68-2.6,9.58-5.32,13.42-9.12,3.73-3.68,4.8-8.41,6.37-13.25,3.6-11.11,7.15-21.65,8.77-33.28.79-5.66,1.75-11.3,2.42-16.96.71-5.9.58-11.84.57-17.77-.01-5.74-.36-11.44-.64-17.17-.15-3.13-.28-6.26-.41-9.4-.11-2.6.23-5.67-.51-8.18-.66-2.22-2.41-4.01-3.21-6.28-.89-2.51-1.53-5.11-1.64-7.78-.09-2.11,1.06-4.4-1.33-3.32-2.14.97-3.86,2.5-6.16,3.25-1.21.4-3.81.35-4.71,1.37-.94,1.07.12,2.54-.31,3.71-.99,2.72-2.86.15-4.14-.83-1.71-1.31-4.03-1.81-6.06-2.37-5.23-1.45-10.61-1.52-15.87-2.71-2.07-.47-4.81-2.42-6.75-2.35-1.97.06-4.81,2.02-6.81,2.59-11.15,3.18-22.7,3.09-33.99.79-5.48-1.12-10.83-2.68-16.02-4.75-2.47-.99-4.89-2.07-7.28-3.25-1.37-.67-4.83-3.35-6.35-3.06-.88.17-1.72,1.47-2.48,1.94-.84.54-1.74.81-2.69,1.1-2.75.82-5.65,1.23-8.49,1.61-5.31.69-10.52,1.22-15.28,3.89-1.79,1.01-4.24,3.29-4.39.17-.1-1.91.85-4.27,1.64-5.97,1.94-4.2,5.74-8.09,9.47-10.76.93-.67,6.37-2.65,6.56-3.16.35-.97-1.65-1.88-2.59-2.69-2.04-1.77-3.88-3.76-5.79-5.67-.7-.7-1.3-1.59-2.21-1.37-.67.16-1.87,2.29-2.31,2.92-5.98,8.6-10.13,19-13.02,29.01-6.4,22.16-6.76,45.57-1.73,68.07,4.78,21.35,13.91,42.55,28.67,58.94,15.08,16.73,36.04,23.91,58.13,24.57,5.59-.16,11.19-.45,16.72-1.3,10.9-1.67,20.86-5.85,30.43-11.18Zm19.9-193.26c-5.07,1.1-6.64,5.95-6.31,10.72.7,10.12,12.47,18.03,21.96,18.03,1.65.04,8.12-1.01,3.5-1.49-.57-.06-3.19.17-3.06-.81.12-.89,2.75-.4,3.37-.44,2.34-.14,5.4-1.13,1.7-2.04-2.96-.72-5.68-2.29-7.96-4.3-.62-.56-2.7-2.05-2.62-3.05.17-2.06,2.01-.26,2.55.2,1.91,1.68,3.78,3.17,6.13,4.22,1.42.64,5.56,2.74,6.52.67.86-1.83-3.02-2.58-4.33-3.2-.21-.1-2.57-.93-1.86-1.61.54-.51,2.41.75,2.92.95,1.65.66,4.86,2.48,3.83-.22-1.81-4.77-6.96-9.85-10.82-13.04-4.4-3.63-9.75-5.84-15.52-4.59Zm-11.66,273.43c.53,2.55,1.58,6.58,3.98,8.02,4.63,2.79,12.11-2.32,15.5-5.3,3.95-3.48,7.19-8.94,7.08-14.36-.06-3.35-2.44-4.86-3.69-7.71-1.2-2.75-1.27-6-.65-8.9.48-2.26,1.91-7.37,4.02-8.66,2.92-1.79,1,2.07.42,3.01-2.47,3.97-4.64,13.86.43,16.91.24-1.9-.38-3.91-.11-5.89.23-1.7.74-3.35,1.44-4.91,1.6-3.58,4.21-6.92,7.07-9.58,6.57-6.1,15.49-8.96,23.41-12.82,2.36-1.15,4.72-2.68,7.16-3.64,1.39-.54,2.48-.72.83.72-1.61,1.4-4.36,2.27-6.26,3.23-1.99,1.01-3.99,1.99-6,2.93-7.65,3.54-15.59,6.62-21.24,13.2-3.77,4.39-9.13,14.59-2.75,19.03.75.52,3.48,2.25,3.8.82.05-.25-.65-1.35-.75-1.63-.38-1.11-.55-2.26-.48-3.43.23-3.87,2.96-7.84,5.31-10.76,2.45-3.04,5.4-5.52,8.54-7.81.67-.49,3.52-2.6,2.39-.43-.65,1.26-3.63,2.58-4.77,3.52-4.73,3.92-14.08,13.37-9.11,20.02.54.72,2.89,3.05,3.59,1.33.03-.05-.73-1.87-.77-1.87-.2-.92-.13-1.74.04-2.65.4-2.27,3.24-7.85,5.69-8.68,2.23-.76.08,1.33-.49,1.94-1.47,1.55-2.84,3.25-3.64,5.26-1.22,3.06-.79,6.22,2.98,6.41,4.86.26,10.24-1.57,14.89-2.78,4.39-1.14,8.61-2.44,12.82-4.14,8.44-3.42,16.43-7.04,23.42-13,6.57-5.61,11.77-12.56,15.95-20.09,4.3-7.74,7.4-16.15,8.45-24.98.3-2.54.49-5.13.39-7.7-.05-1.13-.04-6-1.07-6.66-1.11-.72-1.35.82-2.08,2.13-.97,1.73-1.97,3.4-3.11,5.03-5.02,7.09-11.52,12.94-18.41,18.17-1.16.88-3.79,3.7-5.38,3.45-2.07-.33-.43-1.71.29-2.33,3.37-2.87,7.11-5.31,10.47-8.23,28.27-24.53,29.65-69.3,12.45-100.66-4.42-8.04-9.6-15.54-15.28-22.73-3.15-3.98-6.38-7.89-9.52-11.88-1.69-2.14-4.54-7.95-7.39-7.69-1.08.1-4.09,1.23-4.13,2.23-.05,1.09,3.05,3.77,3.67,4.51,2.97,3.53,5.91,7.07,8.55,10.86,5.34,7.7,10.52,15.63,14.67,24.04,8.51,17.22,10.43,37.2,7.07,55.99-.84,4.73-2.13,9.4-4.08,13.8-.61,1.36-1.38,3.91-2.46,4.88-1.38,1.22-.65-.06-.51-.85.48-2.65,2.61-5.61,3.53-8.21.72-2,1.33-4.04,1.81-6.11,1.12-4.82,1.7-9.78,1.96-14.71,1-19.28-3.22-36.99-13.21-53.5-4.9-8.1-10.14-15.98-16.19-23.26-1.57-1.88-3.12-3.83-4.79-5.62s-2.86-1.87-5.27-1.76c-.89.04-5.05-.26-5.4.36-.28.51,2.21,4.08,2.62,4.81,4.55,8.2,10.68,15.46,15.71,23.36,5.22,8.18,9.2,16.99,11.69,26.37,2.41,9.04,3.18,19.45,1.38,28.68-.4,2.08-.68,5.61-1.91,7.29-.62.86-1.06,1.59-1.17.13-.13-1.79,1.49-4.88,1.86-6.74.43-2.1.73-4.21.92-6.34,1.65-18.74-5.41-37.01-15.77-52.29-5.06-7.47-9.96-15.22-15.23-22.52-2.66-3.68-5.72-4.03-9.58-5.74-1.6-.71-3.09-1.66-4.4-2.83-1.27-1.14-2.14-3.23-3.53-4.12-.45,2.08,1.1,5.33,1.31,7.5.22,2.21.09,4.36-.37,6.53-.79,3.68.4,7.93.73,11.73.8,8.95,1.49,17.95,1.35,26.94-.13,9.12-.81,18.15-1.59,27.24-.2,2.37-.47,4.72-.79,7.07-.06.51-.24,5.21-1.48,3.75-.61-.71.58-4.96.73-6.04.31-2.21.59-4.42.82-6.64,1.74-16.7,1.72-34.33.19-51.05-.15-1.6-.3-9.05-2.21-8.89-.47.04-3.11,2.92-3.65,3.28-.98.66-1.74.82-2.05,2.03-.4,1.6.6,4.18.79,5.82.25,2.14.43,4.28.54,6.43.21,3.96.16,7.92-.04,11.88-.43,8.25-.94,16.52-1.65,24.75-.04.45.15,4.05-1.24,2.9-.5-.41.11-3.02.16-3.73.28-4.05.64-8.09.88-12.14.52-8.47.87-17,.59-25.5-.07-2.11.2-9.33-1.93-10.52-.9-.5-3.58.51-4.69.61-2.02.18-2.25-.18-2.36,1.96-.21,4.19.76,8.66.91,12.87.14,4.03.12,8.07.03,12.1-.2,8.56-.76,17.1-1.24,25.64-.46,8.2-.74,16.43-1.87,24.57-.17,1.18-.75,9.04-2.19,8.88-.58-.06,1.04-8.25,1.18-9.19,2.51-16.6,2.74-33.86,2.78-50.62,0-4.33-.02-8.67-.05-13-.03-3.82.24-7.83-.68-11.57-.16-.64-.89-3.48-2.22-2.17-.52.51-.19,4.44-.2,5.02-.09,3.93.1,7.86-.03,11.79.43,27.18-.15,56.13-8.61,82.17-.34,1.05-1.31,4.17-1.57,1.8-.11-.97.97-3.06,1.28-4.07.45-1.5.89-3.01,1.3-4.52,1.61-5.84,2.64-11.72,3.56-17.71,1.86-12.15,2.21-24.42,2.54-36.7.02-.84.62-7.46-1.03-6.21-.61.47.05,5.47.05,6.42-.02,6.21-.96,12.42-1.83,18.56-1.74,12.19-4.05,23.7-7.91,35.4-3.57,10.81-6.64,21.91-13.07,31.45-6.23,9.25-15.49,15.38-23.65,22.77-7.76,7.03-15.29,15.01-18.78,25.1-1.67,4.79-2.33,9.89-2,14.95.09,1.33,2.55,14.4,4.69,13.44.04-.01-1.61-7.78-1.68-8.62-.29-3.2-.1-6.42.57-9.57,1.44-6.77,5.22-12.92,9.11-18.55,1.06-1.53,10.38-14.39,11.77-13.37.72.53-4.92,6.18-5.55,6.92-2.05,2.43-3.99,4.95-5.78,7.57-3.91,5.75-7.47,11.73-8.67,18.68-1.02,5.87-.68,13.5,2.3,18.85.49.88,4.68,5.58,5.38,4.07.24-.52-1.25-3.18-1.41-3.71-.48-1.56-.75-3.14-.91-4.76-.34-3.53-.22-7.73,1.36-11,.31-.64,1.08-2.36,1.43-.96.18.71-1.04,3.05-1.2,3.76-.8,3.38-.87,6.89-.22,10.3.5,2.57,1.19,6.6,3.65,8.05,1.98,1.18,9.24,1.95,10.96.02,1.15-1.29-1.71-4.14-2.42-5.89-2.58-6.4-2.51-13.34-.56-19.89,1.92-6.47,5-12.39,9.83-17.14,4.43-4.37,9.27-8.19,13.3-12.98,8.27-9.82,14.39-23.81,15.11-36.69.06-.99-.42-4.73.71-5.27,1.14-.54,1.53.34,1.85,1.22.91,2.52-.58,7.2-1.1,9.73-1.44,7.01-3.94,13.85-7.07,20.28-2.77,5.69-6.51,10.86-10.86,15.44-4.32,4.56-9.72,8.13-13.51,13.16-3.86,5.12-6.38,11.26-7.11,17.64-.37,3.21-.37,6.56.17,9.75.17,1,1.73,7.7,3.25,7.35.4-.09-.8-8.19-.81-9.15-.04-3.42.54-6.71,1.61-9.95,1.97-5.91,5.14-11.35,9.02-16.21,4.04-5.07,8.98-9.24,13.32-14.04,2.29-2.53,3.98-5.35,6.02-8.06,1.85-2.45,1.26-.24.2,1.49-7.23,11.74-19.6,19.13-25.52,31.91-3.11,6.71-4.42,13.98-2.9,21.28.65,3.12,1.56,5.63,4.6,7.01,2.25,1.03,4.31,1.47,2.61-1.32-3.45-5.63-4.44-12.15-3.24-18.61.59-3.19,1.66-6.3,3.15-9.18.74-1.42,2.95-6.18,4.61-6.61,1.19-.31.42.51.2,1.08-.52,1.35-2.02,2.72-2.78,3.98-1.79,2.96-3.08,6.23-3.86,9.6-1.46,6.36-.65,13.09,2.53,18.82,1.33,2.39,3.6,4.28,6.5,4.25,3.64-.04.35-2.75-.52-4.71-1.35-3.01-2.3-6.61-2.22-9.92.03-1.05,1.04-7.4,1.81-4.56.32,1.19-.51,3.53-.55,4.78-.05,1.59.09,3.16.42,4.71Zm1.48-225.31c4.11-.31,7.95-1.66,11.66-3.38.64-.29,9.46-4.87,8.11-6.12-.53-.49-6.5,2.74-7.51,3.07-3.19,1.02-6.54,1.76-9.87,2.05-1.56.13-7.52-.84-7.56.59-.01.28,2.14,2.24,2.42,2.51.8.75,1.5,1.69,2.75,1.28Zm-.02,146.37c1.28-2.02,3.83-5.23,4.08-7.64-2.59.9-5.29,3.76-7.68,5.25-2.87,1.79-5.83,3.43-8.81,5.03-5.89,3.14-11.87,5.75-18.33,7.49-6.56,1.75-13.34,2.94-20.11,3.39-7.21.48-14-.55-21.12-1.28.11,1.62,2.43,3.51,3.29,4.83,1,1.52,1.86,3.13,2.55,4.82,1.64,3.99,2.52,8.48,1.17,12.69-2.56,8-11.47,12.67-19.28,13.83-4.06.61-8.33.57-12.38-.09-2.39-.39-4.71-1.05-7.01-1.82-2.51-.83-2.32-.39-3.45,1.94-3.41,6.98-12.5,11.9-19.71,13.76-4.18,1.08-9.08-.25-12.71,1.83-4,2.29-8.06,3.68-12.7,3.93-4,.22-8.31-.05-12.14-1.27-1.72-.55-3.37-1.35-4.81-2.46-1.45-1.14-2.25-3.57-4.04-3.89-1.39-.25-3.24.47-4.72.41-1.86-.08-3.7-.45-5.46-1.05-3.54-1.18-6.8-3.26-9.02-6.3-5.48-7.5-5.5-17-2.81-25.55,2.79-8.87,8.64-16.08,12.29-24.53,3.94-9.1,3.94-19.6,3.02-29.33-.95-10.05-4.15-19.81-6.55-29.58-2.48-10.09-5.09-20.09-6.84-30.34-3.36-19.66-4.7-40.3.43-59.8,4.74-17.99,16.65-33.32,31.23-44.58,4.03-3.1,8.31-6,12.79-8.42,2.06-1.11,4.2-2.02,6.45-2.68,1.99-.59,4.12-.22,4.55-2.37.44-2.21-.53-5.45-.62-7.71-.1-2.78-.07-5.56.19-8.32.48-5.19,1.84-10.19,3.91-14.97,4.1-9.45,11.13-17.68,19.45-23.7,8.39-6.07,17.57-8.84,27.65-10.47-.71-.17-1.42-.33-2.13-.5h15.5c-.48.23-3.37.05-3.44.51.14-.97,16.89,3,18.39,3.48,6.16,1.96,12.24,4.66,17.8,7.95,5.41,3.21,10.11,7.23,15.06,11.07,5.24,4.06,10.81,7.68,16.54,11,10.64,6.14,23.01,10.87,30.88,20.77,1.61,2.03,2.74,5.52,4.58,7.17.76.67.5.88,1.25.14.54-.54.84-3.52,1.08-4.29,1.68-5.4,5.43-10.2,11.32-11.09,11.94-1.81,20.34,8.81,23.81,18.75,1.03,2.96,1.89,6.16,1.76,9.32-.03.89-1.1,3.94-.65,4.62.54.82,1.05.29,1.95.13,3.86-.68,7.52-.67,11.19.94,9.89,4.32,10.9,17.07,4.62,24.92-2.09,2.62-.25,2.89,1.47,5.29,1.47,2.05,2.41,4.48,2.81,6.96.35,2.23.3,4.58-.42,6.73-.42,1.23-1.05,2.47-1.89,3.47-.99,1.18-2.2,1.46-2.09,2.98.15,2.07,3.91,5.62,5.18,7.22,2.02,2.54,4.12,5.01,6.16,7.52,4.34,5.35,8.51,10.85,12.34,16.58,7.41,11.08,13.35,23.01,16.15,36.12,2.89,13.49,2.39,27.3-.43,40.75-.64,3.07-1.41,6.12-2.43,9.08-.47,1.39-1.5,3.02-1.56,4.51-.05,1.57.94,3.36,1.29,4.88,1.55,6.8,1.08,13.82-.73,20.51-3.33,12.39-9.88,24.57-18.58,34-8.37,9.08-19.14,15.22-30.7,19.37-11.28,4.04-26.27,9.93-38.22,5.5-3.39-1.26-2.93-1.35-3.56,2.13-.47,2.61-1.29,5.15-2.57,7.48-2.3,4.2-5.93,7.42-10.1,9.7-5.67,3.09-12.17,4.61-18.61,3.72-3.33-.46-5.83-2.24-8.96-3.12-2.86-.79-6.33,1.3-9.4,1.34-11.95.15-20.2-9.82-22.2-20.78-2.26-12.41,2.89-24.78,10.7-34.25,8.27-10.04,19.35-16.99,28.36-26.24,2.18-2.24,4.06-4.76,5.73-7.39Zm16.71-216.58c-9.15-9.15-22.24-13.78-33.09-20.55-11.27-7.04-20.49-16.66-32.73-22.19-12.55-5.68-26.14-8.74-39.94-7.14-5.77.67-11.37,2.37-16.57,4.94-4.3,2.13-11.4,5.48-13.49,9.99-2.81,6.06-2.56,14.09-2.48,20.62.08,7,.98,14,3.14,20.68,1.87,5.76,4.01,11.69,7.69,16.57,1.04,1.38,2.13,2.77,3.3,4.04.54.59,2.84,2.16,3.02,2.92.49,2.11-3.79-2.07-4.08-2.38-8.41-8.73-12.29-22.28-13.63-34.03-.77-6.8-.81-13.73.15-20.51.15-1.06,1.34-4.58,1.01-5.49-.37-1.02-.1-.48-.9-.23-2.38.74-4.15,5.14-4.95,7.21-4.66,12.07-3.96,26.41-.1,38.57,4,12.62,11.54,24.21,21.44,33.05,9.65,8.62,22.85,12.49,35.18,15.38,3.29.78,6.6,1.39,9.97,1.69.62.06,7.12.46,6.7,1.14-.65,1.06-7.02-.05-8.16-.17-3.39-.35-6.75-.96-10.06-1.79-12.64-3.18-24.98-7.33-34.89-16.1-9.32-8.26-16.5-19.19-20.48-30.98-2.12-6.29-3.61-13-3.96-19.64-.18-3.48.13-6.89.69-10.32.15-.93,2.06-8.65,1.59-8.84-1.39-.57-5.62,12.06-5.91,13.46-1.05,4.98.37,11.26,1.18,16.23,1.76,10.81,5.29,21.4,11.19,30.68,1.44,2.27,3.14,4.32,4.68,6.51,1.9,2.68-.34,1.26-1.54-.27-3.2-4.06-5.92-8.42-8.16-13.08-2.33-4.88-4.12-9.98-5.41-15.23-1.28-5.19-1.68-10.5-2.78-15.7-1.21,3.73-.46,8.25-.07,12.06.37,3.7,1.12,7.31,2.07,10.91,1.92,7.29,4.12,14.16,8.81,20.22,3.46,4.46,9.18,10.59,15.06,11.39,3.11.42,5.66.3,7.99,2.78.89.96,1.57,2.13,1.93,3.4.3,1.01,0,2.48.58,3.37.74,1.15,3.47,1.84,4.69,2.41,1.52.72,3.05,1.42,4.59,2.08,2.91,1.25,5.85,2.4,8.85,3.4,6.55,2.18,13.33,3.82,20.21,4.46,6.54.6,13.09.14,19.52-1.22,3.06-.65,6.6-1.58,9.07-3.61,2.68-2.2-.75-3.27-2.73-4.37-11.24-6.29-21.22-14.21-29.77-23.86-.55-.63-6.2-6.19-2.88-6.21.99,0,4.59,4.94,5.28,5.66,4.43,4.63,8.79,9.15,13.87,13.09,2.77,2.14,5.64,4.13,8.6,5.99,2.31,1.44,5,3.6,7.58,4.45,1.63.54,1.37.21,2.24-1,.33-.47,1.01-1.21.91-1.73-.27-1.46-5.85-3.9-7.16-4.78-2.95-1.99-5.81-4.13-8.59-6.34-.53-.43-5.19-4.81-3.59-4.52.93.17,2.73,2.37,3.46,2.97,1.11.91,2.23,1.8,3.35,2.69,2.56,2.02,5.18,3.98,7.98,5.65,1.22.73,6.28,4.27,7.73,2.73,1.09-1.16-3.55-3.34-4.57-4.11-.87-.66-7.17-4.79-6.95-5.64.39-1.54,4.24,2.25,5.11,2.92,2.49,1.91,5.01,4.03,8.01,5.11,2.72.98,5.4.45,8.2.88,3.11.48,5.31,2.14,8.07,3.44,2.49,1.17,5.71.92,8.42.87,4.9.25,9.75-.72,14.23-2.7,2.16-.96,4.43-1.91,6.42-3.2.96-.62,4.14-2.68,4.11-4.06-5.85,2.16-11.12,4.54-17.43,5.15-6.22.6-13.25-.38-19.07-2.7-.61-.24-7.18-3.02-5.39-3.74.75-.31,5.88,2.82,6.87,3.16,5.81,2.01,12.07,2.52,18.18,2.06,1.59-.12,17.04-3.26,16.1-5.48-.3-.7-3.39-.63-3.93-.75-1.53-.34-2.98-.87-4.38-1.57-2.61-1.33-5.02-3.24-7.22-5.16-4.04-3.53-6.95-8.39-7.2-13.85-.23-5.22,2.37-9.82,7.39-11.6,6.17-2.19,12.62.59,17.54,4.39.51.39,2.12,2.37,2.48,1.11.2-.7-.93-3.34-1.09-4.18-.53-2.9-.47-5.5-1.76-8.22-2.33-4.87-5.53-9.42-9.34-13.24Zm-16.3,73.14c.49.79.64,1.99,1.85,1.95,5.22-.69,10.89-2.86,14.44-8.11.27-.38.82-.87.43-1.3-.41-.47-.91.1-1.32.31-4.55,2.36-9.19,4.47-14.38,5.02-2.11.22-2.13.3-1.02,2.13Z"/>
      <path d="m33.78,223.28c-.26.66.33,2.44-.18,2.74-1.52.89-1.51-2.2-1.22-2.98.62-1.65,2.35-2.61,4.08-2.61,1.58-.09,2.87,1,3.82,2.14.49.58,2.42,3.11,2.07,3.93-.69,1.6-1.75-1.56-2.04-2.03-.73-1.22-1.62-2.47-3.09-2.81-1.39-.33-2.89.25-3.44,1.62Z"/>
      <path d="m32.85,138.86c-2.48-.34-4.15-3.55-4.47-5.8-.11-.74-.8-2.37.61-1.79.23.1.79,3.05.99,3.48.33.68,1.39,2.76,2.37,2.72,1.32-.06.97-1.53,1.86-1.98,1.58-.8,1.41,3.23-1.36,3.37Z"/>
      <path d="m37.83,95.55c-5.77,8.43-11.7,19.4-10.74,29.96,0,4.72.05,9.3,2.26,13.62,2.47,4.82,6.71,3.46,7.27-1.57.61-5.43-1.18-10.92-1.31-16.35-.14-5.34.85-10.56,2.2-15.7,1.29-4.93,3.01-9.75,5.2-14.35.79-1.66,2.14-4.75-.38-1.72-1.62,1.93-3.07,4.03-4.5,6.11Zm-13.18,30.25c.2-12.65,6.18-24.7,13.68-34.64,1.9-2.52,3.98-4.99,6.3-7.13.93-.86,5.08-4.5,4.8-1.21-.06.75-1.12,1.96-1.51,2.71-.78,1.47-1.53,2.95-2.26,4.44-1.44,2.98-2.78,6.01-3.93,9.12-2.21,5.96-3.63,12.13-3.9,18.48-.29,6.83,2.03,13.83,1.18,20.56-.62,4.83-4.87,9-9.49,5.16-4.18-3.48-5.02-12.46-4.87-17.49Z"/>
      <path d="m14.34,274.69c-1.11-1.56,3.48-2.56,4.49-.33-.08,1.15-1.3.03-1.82,0-.68-.02-2.26.9-2.67.32Z"/>
      <path d="m17.77,194.46c.48.58,2.32,1.52,2.48,2.21.3,1.37-.85.5-1.56.06-2.37-1.45-3.64-4.46-3.75-7.13.19-1.09.43-3.37,1.8-3.64,1.63-.33.82.69.5,1.51-.98,2.61-1.51,4.56.53,6.99Z"/>
      <path d="m25.62,245.84c-4.72.09-11.14-1.82-13.02-6.64-1.74-4.5.83-8.94,5.19-10.37,1.29-.43,2.66-.64,4.02-.69,1.51-.06,3.39.71,4.8.53.85-.11.72.48,1.22-.5.17-.33-.64-2.77-.65-3.35-.12-4.11,2.15-8.23,5.94-9.99,11.43-5.29,15.91,9.99,15.95,18.21.13,1.68-.35,6.13-1.9,7.17-.84.57-1.15.02-2.04.21-1.14.24-2.45,1.27-3.57,1.69-4.73,1.79-10.85,3.65-15.94,3.73Zm-11.26-9.56c.08,4.67,4.55,6.66,8.58,7.07,5.13.52,10.06-.93,14.85-2.56,1.72-.59,6.24-1.05,7.44-2.11,1.33-1.17,1.54-4.19,1.47-5.81-.08-6.64-2.67-20.2-12.55-15.87-4.12,1.8-5.59,6.35-4.24,10.45.44,1.36,2.58,3.65.68,4.6-.87.44-5.79-1.36-6.96-1.42-4.22-.26-9.37.34-9.27,5.65Z"/>
      <path d="m22.57,275.88c-.02,3.33-3.55,6.67-6.89,6.32-3.39-.36-5.94-4.23-5.42-7.5,1.17-7.47,12.36-6.33,12.31,1.18Zm-2.19-.78c-.59-4.86-7.84-3.93-7.82.84.03,5.57,8.46,4.36,7.82-.84Z"/>
      <path d="m21.21,202.64c-4.17-1.75-9.52-4.88-11.35-9.28-1.8-4.33,1.45-8.85,5.22-10.89,2.19-1.19,4.08-.46,6.28-.89,1.42-.28.88.58,1.36-.73.17-.47-.3-2.66-.24-3.28.38-3.81,3.01-8.07,7.11-8.53,10.07-1.12,13.28,16.23,13.47,23.19-.18,2.74-.2,6.11-1.24,8.71-.86,2.18-2.12,2.63-4.42,3.09-5.45,1.1-11.03.77-16.19-1.39Zm-9.34-13.39c-1.41,4.34,3.55,7.97,6.77,9.85,3.79,2.2,8.14,3.1,12.49,3.14,2-.02,6.16.2,7.86-1.08,1.56-1.17,1.36-4.98,1.48-6.73.32-4.93-.26-9.87-1.99-14.51-1.18-3.14-3.65-8.32-7.43-8.86-4.55-.64-6.74,5.15-6.2,8.81.2,1.32,2.42,4.09.35,4.78-1.23.41-3.88-1.04-5.28-1.08-3.43-.11-6.97,2.35-8.05,5.68Z"/>
      <path d="m4.25,155.09c0-2.44,1.79-5.19,4.12-6.02.43-.15,2.57-.74,2.5.31-.05.85-2.04.71-2.6.96-2.27,1.02-2.25,3-2.34,5.11-.1,2.7-1.02,1.47-1.68-.36Z"/>
      <path d="m18.19,155.51c-.14-5.01-3.29-10-8.68-9.19-4.43.67-7.38,4.87-7.14,9.26.55,10.16,15.84,10.5,15.82-.07Zm.4-6.26c3.16,5.66,2.38,11.03-2.01,14.5-3.99,3.14-10.43,2.41-13.61-1.56-.99-1.25-1.75-2.63-2.29-4.14-.11-.31-.08-1.05-.68-.3v-5.5c.47.46.22,1.71.58,1.58.66-.25.01-1.14.11-1.77.21-1.26.6-2.43,1.29-3.49,1.87-2.93,7.36-5.29,10.76-4.56,2.93.62,4.51,2.85,5.85,5.24Z"/>
    </g>
  </g>
</svg>