<?xml version="1.0" encoding="UTF-8"?>
<svg id="Capa_2" data-name="Capa 2" xmlns="http://www.w3.org/2000/svg" viewBox="0 0 32 32">
  <defs>
    <style>
      .cls-1 {
        fill: #ff8fa7;
      }

      .cls-1, .cls-2, .cls-3 {
        stroke-width: 0px;
      }

      .cls-2 {
        fill: #fff;
      }

      .cls-3 {
        fill: pink;
      }
    </style>
  </defs>
  <g id="Capa_1-2" data-name="Capa 1">
    <g>
      <path class="cls-1" d="m12.88,11.35c-1.62-2.63-3.7-4.18-6.09-5.12-4.75-1.86-4.89,2.14-3.65,4.96-2.74,1.27-5.2,4.36-.45,6.21,2.39.93,4.94,1.19,7.85.33h0c-2.93.77-5,2.33-6.6,4.38-3.18,4.08.46,5.45,3.45,5.12.33,3.08,2.41,6.45,5.59,2.37,1.6-2.06,2.62-4.48,2.73-7.59h0c-.19,3.11.61,5.62,2.01,7.83,2.78,4.38,5.17,1.23,5.79-1.8,2.94.63,6.69-.37,3.91-4.75-1.4-2.21-3.32-3.96-6.16-5.02h0c2.81,1.15,5.38,1.15,7.84.46,4.9-1.38,2.74-4.69.13-6.23,1.49-2.69,1.73-6.68-3.17-5.3-2.47.69-4.67,2.03-6.54,4.49h0c1.93-2.4,2.72-4.91,2.84-7.55C22.57-1.1,18.85,0,16.62,2.08c-2.02-2.29-5.63-3.76-5.87,1.47-.12,2.63.43,5.21,2.12,7.8"/>
      <path class="cls-3" d="m13.74,12.48c-1.17-1.99-2.69-3.17-4.46-3.91-3.51-1.46-3.67,1.51-2.8,3.64-2.06.9-3.94,3.16-.43,4.62,1.77.73,3.66.96,5.84.37h0c-2.19.53-3.76,1.65-4.98,3.16-2.43,2.99.26,4.07,2.49,3.87.2,2.3,1.7,4.84,4.13,1.85,1.22-1.51,2.02-3.29,2.15-5.61h0c-.19,2.32.37,4.2,1.38,5.86,2.01,3.31,3.83,1,4.34-1.25,2.18.52,4.99-.17,2.98-3.48-1.01-1.66-2.41-3-4.51-3.84h0c2.08.9,3.99.94,5.83.46,3.67-.95,2.11-3.45.19-4.64,1.15-1.98,1.38-4.95-2.28-4-1.85.48-3.51,1.44-4.94,3.24h0c1.47-1.76,2.1-3.62,2.23-5.58.26-3.89-2.53-3.13-4.22-1.62-1.47-1.74-4.13-2.89-4.4,1-.13,1.96.24,3.89,1.46,5.84"/>
      <g>
        <g>
          <g>
            <ellipse class="cls-2" cx="16" cy="16" rx="1.51" ry="1.55"/>
            <path class="cls-2" d="m16,17.58c-.12,0-.25-.02-.37-.05-.4-.1-.73-.36-.94-.72-.21-.36-.27-.79-.18-1.19.1-.41.34-.75.69-.97.35-.22.76-.28,1.16-.18s.73.36.94.72c.21.36.27.79.18,1.19h0c-.1.41-.34.75-.69.97-.24.15-.51.23-.79.23Zm0-3.11c-.27,0-.53.07-.76.22-.34.21-.58.54-.67.94-.09.4-.03.81.17,1.15.2.35.53.59.91.69.38.1.78.04,1.12-.18.34-.21.58-.54.67-.94.09-.4.03-.81-.17-1.15-.2-.35-.53-.59-.91-.69-.12-.03-.24-.05-.36-.05Z"/>
          </g>
          <g>
            <path class="cls-2" d="m16,17.69c-.13,0-.26-.02-.39-.05-.43-.11-.78-.38-1.01-.77-.23-.39-.29-.84-.19-1.28.1-.44.37-.81.74-1.04.38-.23.82-.3,1.24-.19.88.22,1.42,1.14,1.2,2.05h0c-.18.77-.86,1.29-1.59,1.29Zm0-3.11c-.25,0-.49.07-.71.2-.31.2-.53.5-.62.87s-.03.75.16,1.07c.19.32.49.55.84.64.73.19,1.48-.28,1.66-1.03h0c.18-.76-.27-1.52-1-1.71-.11-.03-.22-.04-.33-.04Z"/>
            <path class="cls-2" d="m16,17.72c-.13,0-.27-.02-.4-.05-.43-.11-.8-.39-1.03-.78-.23-.39-.3-.85-.19-1.3.11-.45.38-.82.76-1.06.38-.24.83-.31,1.26-.2.43.11.8.39,1.03.78s.3.85.19,1.3c-.18.77-.85,1.31-1.62,1.31Zm0-3.38c-.29,0-.58.08-.83.24-.37.23-.63.59-.73,1.03-.1.43-.04.88.19,1.26.22.38.58.65,1,.76.13.03.26.05.39.05.74,0,1.39-.52,1.57-1.27.1-.43.04-.88-.19-1.26-.22-.38-.58-.65-.99-.76-.13-.03-.26-.05-.39-.05Zm0,3.11c-.11,0-.22-.01-.33-.04-.36-.09-.67-.32-.86-.65-.19-.33-.25-.72-.16-1.09.09-.37.31-.69.63-.89.32-.2.7-.26,1.06-.17.75.19,1.2.97,1.02,1.74-.16.65-.73,1.09-1.36,1.09Zm0-2.83c-.24,0-.48.07-.69.2-.31.19-.52.49-.61.85s-.03.73.15,1.05c.19.32.48.54.83.63.72.18,1.45-.27,1.63-1.01.18-.74-.26-1.49-.98-1.68-.11-.03-.22-.04-.32-.04Z"/>
          </g>
        </g>
        <g>
          <g>
            <g>
              <line class="cls-2" x1="15.82" y1="16.63" x2="14.99" y2="19.55"/>
              <polygon class="cls-2" points="15.04 19.57 14.94 19.54 15.77 16.62 15.87 16.65 15.04 19.57"/>
            </g>
            <g>
              <path class="cls-2" d="m14.61,19.42c-.06.22.06.46.28.52s.44-.06.51-.29c.06-.22-.06-.46-.28-.52s-.44.06-.51.29Z"/>
              <path class="cls-2" d="m15,19.98s-.08,0-.12-.02c-.11-.03-.2-.11-.26-.21-.06-.1-.07-.23-.04-.34.07-.24.31-.37.54-.3.11.03.2.11.26.21.06.1.07.23.04.34-.03.11-.11.21-.21.27-.06.04-.14.06-.21.06Zm0-.84c-.17,0-.32.11-.37.28-.03.1-.02.21.03.3s.13.16.23.19.2.02.29-.03c.09-.05.15-.13.18-.23.03-.1.02-.21-.03-.3s-.13-.16-.23-.19c-.04-.01-.07-.02-.11-.02Z"/>
            </g>
          </g>
          <g>
            <g>
              <line class="cls-2" x1="15.44" y1="16.32" x2="12.85" y2="17.78"/>
              <polygon class="cls-2" points="12.87 17.82 12.83 17.73 15.41 16.27 15.46 16.36 12.87 17.82"/>
            </g>
            <g>
              <path class="cls-2" d="m12.67,17.4c-.2.11-.27.37-.16.57s.36.28.55.17c.2-.11.27-.37.16-.57s-.36-.28-.55-.17Z"/>
              <path class="cls-2" d="m12.87,18.21c-.15,0-.3-.08-.38-.23-.11-.22-.04-.49.17-.61h0c.21-.12.47-.04.59.18.06.1.07.23.04.34-.03.11-.11.21-.21.27-.07.04-.14.05-.21.05Zm0-.84c-.06,0-.12.02-.18.05h0c-.18.1-.25.34-.15.53.1.19.33.26.52.16.09-.05.15-.13.18-.23.03-.1.02-.21-.03-.3-.07-.13-.2-.2-.34-.2Z"/>
            </g>
          </g>
          <g>
            <g>
              <line class="cls-2" x1="15.39" y1="15.81" x2="12.55" y2="14.96"/>
              <polygon class="cls-2" points="15.37 15.87 12.54 15.01 12.57 14.91 15.4 15.76 15.37 15.87"/>
            </g>
            <g>
              <path class="cls-2" d="m12.69,14.56c-.22-.07-.44.06-.51.29s.06.46.28.52c.22.07.44-.06.51-.29s-.06-.46-.28-.52Z"/>
              <path class="cls-2" d="m12.57,15.41s-.08,0-.12-.02c-.23-.07-.36-.32-.29-.55.03-.11.11-.21.21-.27.1-.06.22-.07.33-.04h0c.23.07.36.32.29.55-.03.11-.11.21-.21.27-.06.04-.14.06-.21.06Zm0-.84c-.17,0-.32.11-.37.28-.06.21.06.43.26.49.2.06.41-.06.47-.27.06-.21-.06-.43-.26-.49h0s-.07-.02-.11-.02Z"/>
            </g>
          </g>
          <g>
            <g>
              <line class="cls-2" x1="15.69" y1="15.42" x2="14.28" y2="12.75"/>
              <polygon class="cls-2" points="15.65 15.45 14.23 12.78 14.32 12.73 15.74 15.4 15.65 15.45"/>
            </g>
            <g>
              <path class="cls-2" d="m14.64,12.57c-.11-.2-.36-.28-.55-.17s-.27.37-.16.57c.11.2.36.28.55.17s.27-.37.16-.57Z"/>
              <path class="cls-2" d="m14.29,13.22s-.08,0-.12-.02c-.11-.03-.2-.11-.26-.21-.11-.22-.04-.49.17-.61.1-.06.22-.07.33-.04.11.03.2.11.26.21s.07.23.04.34c-.03.11-.11.21-.21.27-.06.04-.14.06-.21.06Zm0-.84c-.06,0-.13.02-.18.05-.18.1-.25.34-.15.53.05.09.13.16.23.19s.2.02.29-.03c.09-.05.15-.13.18-.23.03-.1.02-.21-.03-.3h0c-.05-.09-.13-.16-.23-.19-.04-.01-.07-.02-.11-.02Z"/>
            </g>
          </g>
          <g>
            <g>
              <line class="cls-2" x1="16.18" y1="15.37" x2="17.01" y2="12.45"/>
              <polygon class="cls-2" points="16.23 15.38 16.13 15.35 16.96 12.43 17.06 12.46 16.23 15.38"/>
            </g>
            <g>
              <path class="cls-2" d="m17.39,12.58c.06-.22-.06-.46-.28-.52s-.44.06-.51.29c-.06.22.06.46.28.52s.44-.06.51-.29Z"/>
              <path class="cls-2" d="m17,12.91s-.08,0-.12-.02c-.11-.03-.2-.11-.26-.21-.06-.1-.07-.23-.04-.34.07-.24.31-.37.54-.3.11.03.2.11.26.21.06.1.07.23.04.34-.06.19-.23.32-.42.32Zm0-.84c-.17,0-.32.11-.37.28-.03.1-.02.21.03.3s.13.16.23.19c.2.06.41-.06.47-.27.03-.1.02-.21-.03-.3s-.13-.16-.23-.19c-.04-.01-.07-.02-.11-.02Z"/>
            </g>
          </g>
          <g>
            <g>
              <line class="cls-2" x1="16.56" y1="15.68" x2="19.15" y2="14.22"/>
              <polygon class="cls-2" points="16.59 15.73 16.54 15.64 19.13 14.18 19.17 14.27 16.59 15.73"/>
            </g>
            <g>
              <path class="cls-2" d="m19.33,14.6c.2-.11.27-.37.16-.57s-.36-.28-.55-.17c-.2.11-.27.37-.16.57s.36.28.55.17Z"/>
              <path class="cls-2" d="m19.13,14.68c-.15,0-.3-.08-.38-.23-.06-.1-.07-.23-.04-.34.03-.11.11-.21.21-.27.1-.06.22-.07.33-.04.11.03.2.11.26.21s.07.23.04.34c-.03.11-.11.21-.21.27h0c-.07.04-.14.05-.21.05Zm0-.84c-.06,0-.13.02-.18.05-.09.05-.15.13-.18.23-.03.1-.02.21.03.3.1.19.33.26.52.16h0c.09-.05.15-.13.18-.23.03-.1.02-.21-.03-.3-.05-.09-.13-.16-.23-.19-.04-.01-.07-.02-.11-.02Z"/>
            </g>
          </g>
          <g>
            <g>
              <line class="cls-2" x1="16.61" y1="16.19" x2="19.45" y2="17.04"/>
              <polygon class="cls-2" points="19.43 17.09 16.6 16.24 16.63 16.13 19.46 16.99 19.43 17.09"/>
            </g>
            <g>
              <path class="cls-2" d="m19.31,17.44c.22.07.44-.06.51-.29s-.06-.46-.28-.52c-.22-.07-.44.06-.51.29s.06.46.28.52Z"/>
              <path class="cls-2" d="m19.43,17.48s-.08,0-.12-.02h0c-.23-.07-.36-.32-.29-.55.03-.11.11-.21.21-.27.1-.06.22-.07.33-.04.11.03.2.11.26.21.06.1.07.23.04.34-.03.11-.11.21-.21.27-.06.04-.14.06-.21.06Zm-.11-.07c.2.06.41-.06.47-.27.06-.21-.06-.43-.26-.49-.1-.03-.2-.02-.29.03-.09.05-.15.13-.18.23-.06.21.06.43.26.49h0Z"/>
            </g>
          </g>
          <g>
            <g>
              <line class="cls-2" x1="16.31" y1="16.58" x2="17.72" y2="19.25"/>
              <polygon class="cls-2" points="17.68 19.27 16.26 16.6 16.35 16.55 17.77 19.22 17.68 19.27"/>
            </g>
            <g>
              <path class="cls-2" d="m17.36,19.43c.11.2.36.28.55.17s.27-.37.16-.57c-.11-.2-.36-.28-.55-.17s-.27.37-.16.57Z"/>
              <path class="cls-2" d="m17.72,19.68s-.08,0-.12-.02c-.11-.03-.2-.11-.26-.21s-.07-.23-.04-.34c.03-.11.11-.21.21-.27.1-.06.22-.07.33-.04.11.03.2.11.26.21.11.22.04.49-.17.61-.06.04-.14.06-.21.06Zm0-.84c-.06,0-.13.02-.18.05-.09.05-.15.13-.18.23-.03.1-.02.21.03.3h0c.05.09.13.16.23.19.1.03.2.02.29-.03.18-.1.25-.34.15-.53-.05-.09-.13-.16-.23-.19-.04-.01-.07-.02-.11-.02Z"/>
            </g>
          </g>
        </g>
      </g>
    </g>
  </g>
</svg>