<?xml version="1.0" encoding="UTF-8"?>
<svg id="Capa_2" data-name="Capa 2" xmlns="http://www.w3.org/2000/svg" viewBox="0 0 22.5 22.5">
  <defs>
    <style>
      .cls-1 {
        fill: #ff8fa7;
      }
    </style>
  </defs>
  <g id="Capa_1-2" data-name="Capa 1">
    <g>
      <circle class="cls-1" cx="11.25" cy="11.25" r="11.25"/>
      <path d="m11.44,16.68c-.26,0-.51-.1-.71-.29-.39-.39-.39-1.02,0-1.41l2.82-2.82h-7.08c-.55,0-1-.45-1-1s.45-1,1-1h7.11l-2.58-2.63c-.39-.39-.38-1.02,0-1.41.39-.39,1.02-.39,1.41,0l4.33,4.33c.29.29.37.72.22,1.09-.09.23-.26.4-.47.51l-4.34,4.34c-.2.2-.45.29-.71.29Z"/>
    </g>
  </g>
</svg>