<?xml version="1.0" encoding="UTF-8"?>
<svg id="Capa_2" data-name="Capa 2" xmlns="http://www.w3.org/2000/svg" viewBox="0 0 71.66 70">
  <defs>
    <style>
      .cls-1 {
        fill: #3423a3;
      }

      .cls-2 {
        fill: #ffbfcb;
      }
    </style>
  </defs>
  <g id="Capa_2-2" data-name="Capa 2">
    <g>
      <rect class="cls-1" width="71.66" height="70" rx="12.87" ry="12.87"/>
      <g>
        <circle class="cls-1" cx="35.83" cy="35" r="14.29"/>
        <path class="cls-2" d="m35.83,51.06c-4.29,0-8.32-1.67-11.35-4.7-3.03-3.03-4.7-7.07-4.7-11.35s1.67-8.32,4.7-11.35c3.03-3.03,7.07-4.7,11.35-4.7s8.32,1.67,11.35,4.7c3.03,3.03,4.7,7.07,4.7,11.35s-1.67,8.32-4.7,11.35c-3.03,3.03-7.07,4.7-11.35,4.7Zm0-28.58c-6.9,0-12.52,5.62-12.52,12.52s5.62,12.52,12.52,12.52,12.52-5.62,12.52-12.52-5.62-12.52-12.52-12.52Z"/>
      </g>
      <circle class="cls-2" cx="55.77" cy="15.68" r="4.47"/>
    </g>
  </g>
</svg>