<?xml version="1.0" encoding="UTF-8"?>
<svg id="Capa_2" data-name="Capa 2" xmlns="http://www.w3.org/2000/svg" viewBox="0 0 71.66 70">
  <defs>
    <style>
      .cls-1 {
        fill: #3423a3;
      }

      .cls-2 {
        fill: #ffbfcb;
      }
    </style>
  </defs>
  <g id="Capa_2-2" data-name="Capa 2">
    <g>
      <rect class="cls-1" width="71.66" height="70" rx="12.87" ry="12.87"/>
      <g>
        <path class="cls-2" d="m19.1,12.7c2.88,0,5.26,2.38,5.26,5.26s-2.38,5.26-5.26,5.26-5.26-2.38-5.26-5.26,2.38-5.26,5.26-5.26Zm4.4,13.37v31.23h-8.8v-31.23h8.8Z"/>
        <path class="cls-2" d="m27.68,26.07h8.8v4.04c1.66-2.31,4.62-5.05,9.66-5.05,2.74,0,6.78.79,9.23,3.82,2.16,2.67,2.45,5.77,2.45,8.8v19.62h-8.8v-17.02c0-1.73-.07-4.47-1.66-6.13-1.37-1.44-3.25-1.59-4.11-1.59-2.31,0-4.11.79-5.41,2.74-1.3,2.02-1.37,4.25-1.37,6.06v15.94h-8.8v-31.23Z"/>
      </g>
    </g>
  </g>
</svg>